<?xml version="1.0" encoding="UTF-8"?>
<!-- Generated by Pixelmator Pro 3.6.1 -->
<svg width="830" height="819" viewBox="0 0 830 819" xmlns="http://www.w3.org/2000/svg">
    <path id="Circle" fill="#ffffff" fill-rule="evenodd" stroke="none" d="M 830 409 C 830 191.952087 644.198181 16 415 16 C 185.801834 16 0 191.952087 0 409 C 0 626.047913 185.801834 802 415 802 C 644.198181 802 830 626.047913 830 409 Z"/>
    <path id="Path" fill="#a8d4f1" fill-rule="evenodd" stroke="none" d="M 929.421997 -81 C 929.421997 -69.724976 929.567993 -65.112 929.745972 -70.75 C 929.924011 -76.388 929.924011 -85.612 929.745972 -91.25 C 929.567993 -96.888 929.421997 -92.275024 929.421997 -81 M 392.768005 0.724976 C 394.565002 0.947021 397.265015 0.942993 398.768005 0.714966 C 400.270996 0.486023 398.799988 0.304016 395.5 0.309998 C 392.200012 0.315002 390.971008 0.502014 392.768005 0.724976 M 699 114.5 C 703.651001 119.174988 707.68103 123 707.955994 123 C 708.231018 123 704.651001 119.174988 700 114.5 C 695.348999 109.825012 691.31897 106 691.044006 106 C 690.768982 106 694.348999 109.825012 699 114.5 M 485.5 122.044983 C 483.070007 122.507019 484.836975 122.596985 490 122.275024 C 494.674988 121.981995 498.687988 121.575989 498.916992 121.372009 C 499.622009 120.742981 489.736023 121.239014 485.5 122.044983 M 475.14801 124.804016 C 470.836975 126.484009 469.617981 128.122986 472.174988 128.801025 C 473.052979 129.033997 472.992981 128.794006 472 128.091003 C 470.666992 127.14801 470.666992 127.020996 472 126.940979 C 473.767029 126.835999 481.96698 123.15802 480.5 123.129028 C 479.950012 123.117981 477.541992 123.872009 475.14801 124.804016 M 522.5 128.458008 C 527.526001 130.627014 530.768982 131.125 526.5 129.072021 C 524.299988 128.014038 521.825012 127.151978 521 127.156006 C 520.174988 127.160034 520.849976 127.745972 522.5 128.458008 M 718.473022 133.891968 C 722.307983 137.801025 725.642029 141 725.882019 141 C 726.659973 141 715.559998 129.419006 713.5 128.082031 C 712.400024 127.367004 714.638 129.981995 718.473022 133.891968 M 454.809021 138.960999 C 449.387024 144.156006 447.107971 146.934998 448.25 146.960999 C 449.211975 146.981995 450 146.412964 450 145.695984 C 450 143.875977 456.460999 137.794983 457.398987 138.731995 C 457.820984 139.155029 458.017029 138.825012 457.833008 138 C 457.650024 137.174988 458.086975 136.620972 458.804993 136.768005 C 459.52301 136.916016 461.085022 136.353027 462.276978 135.518005 C 463.510986 134.653992 463.86499 134 463.099976 134 C 462.018005 134 461.997986 133.707031 463 132.5 C 466.094971 128.770996 462.41803 131.671021 454.809021 138.960999 M 535 133.312012 C 537.474976 134.515015 539.724976 135.724976 540 136 C 540.275024 136.275024 541.400024 136.596985 542.5 136.716003 C 543.599976 136.833984 541.799988 135.619019 538.5 134.015015 C 535.200012 132.411011 532.049988 131.104004 531.5 131.110962 C 530.950012 131.117981 532.525024 132.109009 535 133.312012 M 545 137.325012 C 545 137.518982 551.075012 140.739014 558.5 144.481995 C 565.924988 148.223999 572 151.671997 572 152.143005 C 572 152.614014 572.765015 153 573.700012 153 C 576.372009 153 574.382019 151.629028 563 145.632019 C 552.60498 140.155029 545 136.64502 545 137.325012 M 427.153992 144.875977 C 427.840027 145.973022 428.721985 146.671997 429.11499 146.429016 C 429.508972 146.186035 431.237976 147.171021 432.958008 148.618042 C 434.677002 150.065002 436.320007 151.013 436.607971 150.724976 C 437.177002 150.156006 431.896973 145.971985 428.203979 144.065979 C 426.059998 142.958984 425.991028 143.013 427.153992 144.875977 M 470.440002 146.48999 C 468.974976 148.410034 467.307983 149.690002 466.734009 149.335999 C 466.159973 148.980957 465.979004 149.157959 466.33197 149.728027 C 466.684021 150.297974 466.002014 152.054993 464.815002 153.631958 C 461.588013 157.921997 460.603027 158.791016 461.341003 156.697998 C 461.742004 155.562012 461.586975 155.136963 460.919983 155.549011 C 460.338989 155.907959 460.127014 156.889038 460.448975 157.728027 C 460.770996 158.567017 460.521973 159.870972 459.89502 160.627014 C 459.268005 161.381958 458.97998 162 459.255005 162 C 459.528992 162 462.171997 158.771973 465.127014 154.825989 C 468.08197 150.880981 471.325012 146.606018 472.333008 145.325989 C 473.34198 144.046997 473.927002 143 473.633972 143 C 473.341003 143 471.903992 144.570984 470.440002 146.48999 M 379.359985 148.353027 C 369.631012 155.578003 357.325989 169.653015 346.009003 186.5 L 342.649994 191.5 L 346.315002 188 C 348.329987 186.075012 349.983002 183.728027 349.989014 182.785034 C 349.994995 181.842041 350.899994 180.588989 352 180 C 353.100006 179.411011 354 178.244019 354 177.406006 C 354 176.567993 354.411011 176.135986 354.914001 176.447021 C 355.415985 176.756958 356.411987 175.69104 357.126007 174.078003 C 357.839996 172.463989 358.847992 171.406006 359.367004 171.72699 C 359.886993 172.047974 359.97699 171.771973 359.567993 171.109985 C 359.122009 170.389038 360.444 168.156982 362.885986 165.506958 C 365.118988 163.084961 367.213989 161.536987 367.541992 162.067993 C 367.869995 162.598999 368.57901 162.76001 369.118011 162.427002 C 369.721008 162.054993 369.743011 161.375977 369.175995 160.661011 C 368.567993 159.89502 369.062012 158.656006 370.627014 157.020996 C 371.970001 155.618042 373 155.105957 373 155.842041 C 373 156.791016 373.427002 156.716003 374.580994 155.562012 C 375.450012 154.692993 376.515015 154.200989 376.947998 154.468018 C 377.381012 154.735962 377.683014 153.952026 377.618011 152.72699 C 377.537994 151.221985 378.040985 150.541016 379.17099 150.625977 C 380.290985 150.709961 380.645996 150.240967 380.247009 149.202026 C 379.812012 148.067017 380.096985 147.822998 381.313995 148.290039 C 382.34201 148.684998 382.88501 148.464966 382.738007 147.713989 C 382.606995 147.046021 383.212006 146.549988 384.083008 146.610962 C 384.95401 146.671997 385.666992 146.109985 385.666992 145.360962 C 385.666992 144.613037 385.56601 144 385.442993 144 C 385.321014 144 382.583008 145.958984 379.359985 148.353027 M 586 159.333008 C 586 159.60498 588.362 161.320007 591.25 163.143005 C 594.138 164.966003 597.737 167.247986 599.25 168.213989 C 603.66803 171.036011 602.411987 169.374023 597.75 166.22998 C 591.369995 161.927002 586 158.775024 586 159.333008 M 485.747009 164.25 C 479.14801 172.531006 474.200989 179.960999 463.169983 198.156006 L 460.953003 201.812012 L 468.599976 210.656006 C 472.80603 215.52002 476.567017 219.853027 476.958008 220.285034 C 477.692993 221.094971 497.94397 218.190002 499.211975 217.092041 C 499.604004 216.752991 498.781982 213.330994 497.38501 209.488037 C 491.664978 193.745972 486.723999 163.676025 489.416016 160.984009 C 489.95697 160.442993 490.11499 160 489.767029 160 C 489.419006 160 487.609985 161.912964 485.747009 164.25 M 551.5 162.723022 C 553.559998 164.716003 568 172.921997 568 172.099976 C 568 171.627991 566.650024 170.682983 565 170 C 563.349976 169.317017 562 168.362 562 167.879028 C 562 167.39502 561.409973 167 560.689026 167 C 559.96698 167 558.392029 166.082031 557.189026 164.960999 C 555.984985 163.839966 555 163.179993 555 163.495972 C 555 163.812012 553.987 163.549011 552.75 162.912964 C 551.513 162.276001 550.950012 162.19104 551.5 162.723022 M 383.247009 170.412964 C 382.157013 171.799011 380.942993 172.609985 380.549011 172.216003 C 380.156006 171.822021 379.983002 172.006958 380.166992 172.625977 C 380.350006 173.245972 379.356995 175.047974 377.959991 176.631958 C 374.902008 180.098999 372.792999 183.436035 375.200012 181 C 380.769989 175.364014 386.21701 168.884033 385.765015 168.432007 C 385.470001 168.135986 384.335999 169.028015 383.247009 170.412964 M 605 171.914001 C 606.375 173.052002 609.299988 175.202026 611.5 176.69104 C 613.700012 178.18103 616.510986 180.286011 617.745972 181.369995 C 618.981018 182.453979 620.255005 183.078003 620.577026 182.755981 C 620.898987 182.43396 617.653992 179.77002 613.366028 176.834961 C 604.411011 170.707031 601.403015 168.937988 605 171.914001 M 429 172.176025 C 429 172.44397 432.328979 175.653992 436.398987 179.311035 L 443.796997 185.958984 L 445.528015 183.229004 C 446.481018 181.728027 446.661011 181.062988 445.929993 181.75 C 443.932007 183.627991 442.30603 183.283997 438.85199 180.25 C 437.130005 178.738037 435.20697 177.049988 434.580017 176.5 C 430.346985 172.792969 429 171.749023 429 172.176025 M 569 173.367004 C 569 173.56897 570.778015 174.911011 572.952026 176.348999 C 575.669006 178.146973 577.122986 178.609009 577.606018 177.828003 C 577.992981 177.203003 577.870972 176.960999 577.336975 177.291992 C 576.802002 177.622986 575.252991 176.905029 573.89502 175.696045 C 571.656982 173.705994 569 172.44104 569 173.367004 M 626.421021 188.127991 C 626.012024 188.790039 626.117981 189.045044 626.663025 188.708008 C 627.197998 188.377014 628.72998 189.108032 630.067993 190.332031 C 631.406006 191.55603 633.968018 193.591003 635.762024 194.85498 C 637.55603 196.119019 638.723999 197.638 638.356995 198.230957 C 637.991028 198.823975 638.151978 199.023987 638.716003 198.674988 C 639.280029 198.327026 640.690979 198.820007 641.85199 199.770996 C 643.012024 200.721985 645.104004 202.315002 646.500977 203.312012 C 647.89801 204.30896 648.737 205.615967 648.366028 206.217041 C 647.976013 206.848022 648.151001 207.025024 648.781006 206.63501 C 649.380005 206.265015 650.911987 206.984009 652.184998 208.234009 C 653.458008 209.483032 656.414978 212.005981 658.755005 213.841003 C 661.094971 215.674988 662.802002 217.510986 662.549011 217.921021 C 662.294983 218.330994 662.736023 218.666992 663.528015 218.666992 C 665.671021 218.666992 664.174988 217.161011 651.593018 206.653015 C 632.661987 190.842041 627.218994 186.837036 626.421021 188.127991 M 340.096985 195.559998 C 338.941986 197.518005 338.523987 198.794006 339.167999 198.395996 C 339.963989 197.903992 340.128998 198.223022 339.681 199.388 C 339.281006 200.432007 339.42099 200.858032 340.037994 200.47699 C 340.596008 200.130981 340.992004 199.321045 340.917999 198.674988 C 340.843994 198.028992 341.118988 196.448975 341.529999 195.165039 C 342.09201 193.411011 342.488007 193.161987 343.122986 194.165039 C 343.772003 195.187988 343.972992 195.091003 343.984985 193.75 C 344.009003 190.950012 342.36499 191.716003 340.096985 195.559998 M 601 195.35199 C 601 195.546021 603.744019 197.860962 607.098022 200.495972 C 610.705994 203.329956 612.648987 204.411011 611.856995 203.143005 C 611.120972 201.964966 610.161987 201 609.726013 201 C 609.289978 201 607.612976 199.650024 606 198 C 603.502014 195.445007 601 194.119995 601 195.35199 M 332.600006 208.578003 C 329.972992 213.296997 328.078003 217.411011 328.388 217.721985 C 328.699005 218.031982 329.251007 217.509033 329.615997 216.55896 C 330.074005 215.364014 330.501007 215.192017 331 216 C 331.509003 216.822998 331.901001 216.700989 332.32901 215.583984 C 332.664001 214.713013 332.515015 214 332 214 C 331.484985 214 331.321014 213.328003 331.635986 212.505981 C 331.951996 211.68396 332.561005 211.229004 332.990997 211.494995 C 333.421997 211.760986 334.386993 211.221985 335.136993 210.296997 C 336.074005 209.140991 336.109985 208.851013 335.25 209.367004 C 333.890991 210.182983 333.644989 209.088989 334.617004 206.55603 C 335.024994 205.493042 335.617004 205.266968 336.367004 205.886963 C 337.166992 206.549011 337.572998 205.822998 337.748993 203.411987 C 337.886993 201.536011 337.859009 200 337.687988 200 C 337.516998 200 335.227997 203.859985 332.600006 208.578003 M 622 211.321045 C 622 211.596008 625.577026 214.780029 629.948975 218.396973 C 635.10199 222.660034 638.145996 224.572021 638.604004 223.832031 C 639.038025 223.130005 638.86499 222.964966 638.155029 223.405029 C 637.52002 223.796997 637 223.700989 637 223.192017 C 637 222.682983 635.184021 221.063965 632.963989 219.594971 C 630.606018 218.033997 629.215027 216.459961 629.619019 215.807983 C 630.018982 215.161011 629.859009 214.968994 629.239014 215.35199 C 628.651001 215.716003 626.781006 214.844971 625.085022 213.417969 C 623.388 211.98999 622 211.046997 622 211.321045 M 447 220.5 C 451.651001 225.174988 455.68103 229 455.955994 229 C 456.231018 229 452.651001 225.174988 448 220.5 C 443.348999 215.825012 439.31897 212 439.044006 212 C 438.768982 212 442.348999 215.825012 447 220.5 M 525.75 214.723022 C 527.538025 214.945007 530.461975 214.945007 532.25 214.723022 C 534.038025 214.502014 532.575012 214.320007 529 214.320007 C 525.424988 214.320007 523.961975 214.502014 525.75 214.723022 M 666 219.315002 C 666 220.242004 673.138977 227.195007 673.607971 226.724976 C 673.804016 226.530029 672.171997 224.619995 669.981995 222.481995 C 667.791992 220.343994 666 218.917969 666 219.315002 M 40.449997 233.098999 C 39.028 235.903992 38.033005 238.367004 38.238007 238.571045 C 38.442993 238.776001 39.817993 236.481995 41.294998 233.471985 C 42.770996 230.462036 43.766006 228 43.505997 228 C 43.246002 228 41.871002 230.295044 40.449997 233.098999 M 676.594971 230.156006 C 679.073975 232.963013 687.942993 241.682983 692.177002 245.47699 C 694.005005 247.11499 691.007996 243.85199 685.518982 238.22699 C 680.028992 232.60199 675.346985 228 675.114014 228 C 674.880981 228 675.546997 228.969971 676.594971 230.156006 M 341.119995 233.75 C 340.580994 234.712036 339.785004 235.275024 339.351013 235 C 338.915985 234.724976 338.485992 235.985962 338.394989 237.802002 C 338.200012 241.677002 338.143005 241.712036 340.897003 236.25 C 342.957001 232.166016 343.136993 230.146973 341.119995 233.75 M 540.291992 237.742004 C 544.026978 237.934998 549.877014 237.93396 553.291992 237.739014 C 556.705994 237.545044 553.650024 237.386963 546.5 237.389038 C 539.349976 237.390015 536.55603 237.549988 540.291992 237.742004 M 198.5 241 C 195.200012 242.01001 193.174988 242.868042 194 242.905029 C 194.825012 242.942017 198.200012 242.119995 201.5 241.078003 C 204.799988 240.035034 206.825012 239.177979 206 239.172974 C 205.174988 239.166992 201.799988 239.98999 198.5 241 M 335.024994 245.953003 C 334.197998 247.499023 332.682007 247.979004 327.73999 248.26001 L 321.5 248.61499 L 328.088989 248.807007 C 334.234009 248.987 334.756012 248.830994 335.817993 246.5 C 337.161011 243.552979 336.539001 243.124023 335.024994 245.953003 M 665 247.672974 C 665 248.160034 667.869995 251.403015 671.379028 254.880005 C 675.859009 259.320007 677.987976 260.828003 678.53302 259.946045 C 678.997986 259.195007 678.901978 258.942017 678.294983 259.317993 C 677.388 259.877991 672.755981 255.636963 672.215027 253.75 C 672.096985 253.337036 671.750977 253.021973 671.447021 253.049011 C 671.143005 253.075989 669.567993 251.678955 667.947021 249.94397 C 666.325989 248.208008 665 247.187012 665 247.672974 M 281.286987 249.73999 C 284.468994 249.938965 289.419006 249.937012 292.286987 249.735962 C 295.153992 249.535034 292.549988 249.372009 286.5 249.374023 C 280.450012 249.375977 278.104004 249.541016 281.286987 249.73999 M 697.252014 251.658997 C 698.216003 252.760986 698.666016 254.035034 698.252014 254.490967 C 697.838013 254.947998 698.127991 254.957031 698.89502 254.511963 C 699.97699 253.884033 700.179993 254.276978 699.801025 256.26001 C 699.494995 257.859009 699.721985 258.667969 700.406006 258.419006 C 701.963989 257.85199 703.127991 258.859009 707.289978 264.372009 C 709.312012 267.052002 710.716003 269.651001 710.408997 270.146973 C 710.10199 270.643005 710.447021 270.926025 711.176025 270.775024 C 712.005981 270.60199 712.370972 271.244995 712.155029 272.5 C 711.965027 273.599976 712.148987 274.166016 712.562988 273.759033 C 712.97699 273.351013 714.021973 273.575989 714.885986 274.259033 C 715.749023 274.94104 714.716003 273.025024 712.591003 270 C 707.629028 262.937988 698.065979 251.146973 696.617981 250.30603 C 696.002991 249.947998 696.288025 250.557983 697.252014 251.658997 M 659.177979 271.787964 C 662.875977 275.247009 668.231995 280.646973 671.078979 283.787964 C 673.940979 286.946045 674.892029 287.710999 673.203979 285.5 C 670.148987 281.494995 659.721008 271.182007 654.97699 267.473022 C 653.588989 266.388 655.479004 268.329956 659.177979 271.787964 M 684.802979 268.531006 C 684.242981 269.091003 692.703003 281 693.659973 281 C 693.846985 281 694 280.297974 694 279.44104 C 694 278.583984 693.64801 278.099976 693.218018 278.365967 C 692.786987 278.630981 691.328979 277.196045 689.97699 275.174988 C 688.624023 273.153992 687.244019 271.275024 686.908997 271 C 686.573975 270.724976 686.111023 269.908997 685.879028 269.187988 C 685.64801 268.466003 685.163025 268.170044 684.802979 268.531006 M 193.210999 270.151001 C 193.920013 270.601013 194.023987 270.976013 193.44101 270.984985 C 192.859009 270.993042 191.509003 271.695007 190.44101 272.545044 C 189.354004 273.410034 190.479004 273.135986 193 271.921997 C 195.475006 270.72998 197.613007 269.658997 197.75 269.544006 C 197.886993 269.427979 196.631989 269.333008 194.960999 269.333008 C 193.001007 269.333008 192.378998 269.624023 193.210999 270.151001 M 120 274.76001 C 120 275.234985 120.917999 276.608032 122.039001 277.811035 C 124.052002 279.973022 124.423996 279.997009 151.789001 279.766968 L 179.5 279.533997 L 152.100006 279.25 L 124.699005 278.967041 L 122.350006 276.432007 C 121.057007 275.037964 120 274.285034 120 274.76001 M 283.776001 274.733032 C 286.127991 274.945007 289.727997 274.942017 291.776001 274.72699 C 293.824005 274.511963 291.899994 274.338989 287.5 274.343018 C 283.100006 274.346008 281.424011 274.521973 283.776001 274.733032 M 720.458984 283.264038 C 721.911987 285.884033 722.872986 288.396973 722.593994 288.846985 C 722.315979 289.297974 722.713989 289.666992 723.479004 289.666992 C 724.580994 289.666992 724.484009 288.921021 723.013977 286.083008 C 721.992004 284.113037 720.405029 281.599976 719.487 280.5 C 718.56897 279.400024 719.005981 280.644043 720.458984 283.264038 M 255.199005 286.744019 C 259.984009 286.927002 268.084015 286.927979 273.199005 286.745972 C 278.315002 286.563965 274.399994 286.414001 264.5 286.412964 C 254.600006 286.411987 250.415009 286.561035 255.199005 286.744019 M 295.75 288.73999 C 299.187988 288.936035 302 289.523987 302 290.047974 C 302 290.571045 302.899994 291 304 291 C 305.100006 291 306 290.60199 306 290.117004 C 306 288.731995 302.036987 288.010986 295.5 288.205994 L 289.5 288.38501 L 295.75 288.73999 M 207.75 291.56604 C 205.136993 292.926025 203 294.157959 203 294.304993 C 203 294.450989 203.867004 294.571045 204.927002 294.571045 C 205.985992 294.571045 206.63501 294.218018 206.368011 293.786011 C 205.934998 293.085999 206.753998 292.833008 208.638 293.084961 C 208.989014 293.131958 209.552002 292.755981 209.888 292.25 C 210.225006 291.743042 211.399994 290.81897 212.5 290.195007 C 216.397003 287.984985 212.428009 289.130981 207.75 291.56604 M 310.75 290.723022 C 313.273987 291.036987 314.015991 291.61499 314.070007 293.312988 C 314.138 295.422974 314.17099 295.429993 315 293.5 C 316.408997 290.221985 316.186005 289.993042 311.75 290.160034 C 308.06601 290.299011 307.933014 290.374023 310.75 290.723022 M 725.960999 293.396973 C 726.461975 294.716003 726.564026 296.138 726.185974 296.557983 C 725.809021 296.97699 725.953979 297.063965 726.508972 296.75 C 727.064026 296.437012 728.375 297.94104 729.421997 300.093994 C 730.468994 302.247009 731.507019 303.827026 731.728027 303.60498 C 731.950012 303.384033 730.744995 300.457031 729.051025 297.101013 C 725.952026 290.962036 724.267029 288.942993 725.960999 293.396973 M 194.322998 300.005005 C 183.319 307.88501 177.391998 313.515991 179.072998 314.492004 C 179.858002 314.947998 180.165985 314.952026 179.759003 314.502014 C 178.912994 313.56897 180.737 311 182.244995 311 C 182.795013 311 182.63501 311.787964 181.890015 312.75 C 180.761993 314.205994 180.906006 314.18396 182.743988 312.615967 C 183.959015 311.579956 184.740997 310.390015 184.483002 309.971985 C 184.223999 309.553955 185.471985 308.062988 187.256012 306.660034 C 189.040009 305.256958 192.21701 302.76001 194.31601 301.110962 C 196.419006 299.459961 198.794006 298.368042 199.606995 298.678955 C 200.417999 298.990967 201.01001 298.853027 200.921997 298.372986 C 200.562988 296.405029 201.084991 295.587036 201.890015 296.856995 C 202.419006 297.69104 202.988007 297.828003 203.368988 297.212036 C 203.709991 296.660034 203.348999 295.963989 202.566986 295.664001 C 201.785004 295.364014 198.075012 297.317017 194.322998 300.005005 M 736 314.368042 C 736 315.88501 741.307983 331.026001 741.700989 330.631958 C 741.932007 330.401001 740.935974 326.682007 739.487 322.365967 C 737.028992 315.044006 736 312.68396 736 314.368042 M 174.595001 317.901001 C 172.854004 319.718018 172.234985 321.026978 172.917999 321.448975 C 173.516998 321.820007 174 321.421997 174 320.55896 C 174 319.702026 174.701996 319 175.55899 319 C 176.415985 319 176.864014 318.588013 176.553009 318.084961 C 176.242004 317.582031 176.553009 316.968994 177.243988 316.721985 C 177.934998 316.476013 178.242004 315.992004 177.927002 315.646973 C 177.612 315.302979 176.113007 316.317017 174.595001 317.901001 M 100.75 317.747986 C 108.587006 317.916992 121.412003 317.916992 129.25 317.747986 C 137.087006 317.578979 130.675003 317.44104 115 317.44104 C 99.324997 317.44104 92.912003 317.578979 100.75 317.747986 M 168.188995 326.25 C 164.460999 331.698975 161.716995 337.051025 162.334991 337.667969 C 162.600006 337.93396 163.114014 337.217041 163.476013 336.075012 C 163.838013 334.93396 164.553986 334 165.066986 334 C 165.579987 334 166 333.072998 166 331.94104 C 166 330.639038 166.424988 330.144043 167.154999 330.594971 C 167.816986 331.005005 168.039001 330.872986 167.675995 330.285034 C 167.328003 329.721985 168.15799 327.964966 169.519989 326.380005 C 171.828003 323.697021 172.614014 322 171.548004 322 C 171.299011 322 169.787994 323.912964 168.188995 326.25 M 133 337.765015 C 133 338.528015 125.925003 338.894043 109.800995 338.963989 C 97.042007 339.019043 86.391998 339.275024 86.134995 339.531982 C 85.876999 339.789001 96.289993 340 109.274002 340 C 131.369003 340 135.832001 339.499023 133.600006 337.266968 C 133.270004 336.937012 133 337.161011 133 337.765015 M 746.218018 351 C 746.208008 352.924988 746.559998 355.625 747 357 C 747.776978 359.426025 747.799988 359.411011 747.781982 356.5 C 747.771973 354.849976 747.419983 352.150024 747 350.5 L 746.237 347.5 L 746.218018 351 M 156.074005 356.660034 C 155.401001 360.598022 155.041 365.098022 155.274994 366.660034 C 155.639008 369.087036 155.722 368.962036 155.850006 365.799011 C 155.932999 363.764038 156.487 359.825989 157.082993 357.047974 C 157.679001 354.270996 157.970993 351.436035 157.731995 350.749023 C 157.492996 350.062012 156.746994 352.721985 156.074005 356.660034 M 294.631989 370.089966 C 294.283997 371.828003 294.054993 374.656006 294.122009 376.375 C 294.195007 378.234985 294.593994 377.099976 295.108002 373.570007 C 296.028015 367.26001 295.69101 364.795044 294.631989 370.089966 M 749.309998 374.5 C 749.315002 377.799988 749.502014 379.028992 749.724976 377.231995 C 749.947021 375.434998 749.942993 372.734985 749.715027 371.231995 C 749.486023 369.729004 749.304016 371.200012 749.309998 374.5 M 705.392029 384 C 705.392029 391.424988 705.549011 394.462036 705.742004 390.75 C 705.934021 387.037964 705.934021 380.962036 705.742004 377.25 C 705.549011 373.537964 705.392029 376.575012 705.392029 384 M 727.309998 376.5 C 727.315002 379.799988 727.502014 381.028992 727.724976 379.231995 C 727.947021 377.434998 727.942993 374.734985 727.715027 373.231995 C 727.486023 371.729004 727.304016 373.200012 727.309998 376.5 M 154.363007 373.219971 C 154.119003 373.61499 173.704987 374.065002 197.886993 374.219971 C 240.554993 374.492004 241.938995 374.561035 244.678009 376.571045 C 246.230011 377.709961 248.330994 380.184998 249.346008 382.071045 C 250.662994 384.516968 250.993988 384.782959 250.498993 383 C 250.118011 381.625 249.752991 379.745972 249.688995 378.822998 C 249.623993 377.901001 249.253998 377.343018 248.865997 377.583008 C 248.479004 377.822021 247.562012 377.427002 246.830994 376.703003 C 246.098999 375.97998 244.600006 374.963013 243.5 374.44397 C 241.157013 373.338013 155.020004 372.155029 154.363007 373.219971 M 293.335999 390 C 293.335999 394.125 293.513 395.812988 293.727997 393.75 C 293.944 391.687988 293.944 388.312988 293.727997 386.25 C 293.513 384.187988 293.335999 385.875 293.335999 390 M 544.320007 389 C 544.320007 392.575012 544.502014 394.037964 544.723022 392.25 C 544.945007 390.462036 544.945007 387.537964 544.723022 385.75 C 544.502014 383.962036 544.320007 385.424988 544.320007 389 M 249.574005 392.478027 C 247.348999 397.802979 242.911987 399.973022 234 400.096008 C 229.875 400.153015 225.375 400.594971 224 401.078003 C 221.880005 401.822998 222.032013 401.890015 225 401.516968 C 226.924988 401.276001 231.875 400.999023 236 400.901978 C 240.125 400.804993 244.057007 400.286987 244.737 399.750977 C 245.417999 399.214966 246.718994 399.062012 247.628998 399.411011 C 248.950989 399.917969 249.050995 399.766968 248.128998 398.656006 C 247.243988 397.588989 247.309998 396.988037 248.410004 396.075012 C 249.792999 394.927002 252.348999 389 251.460999 389 C 251.221985 389 250.372986 390.565002 249.574005 392.478027 M 318 398.911011 C 318 415.953003 322.631012 449.968018 325.070007 450.835022 C 325.588013 451.02002 325.786011 451.536987 325.51001 451.982971 C 324.718994 453.263977 329.847992 467.661011 334.421997 477 C 339.618011 487.609985 343.95401 494.367004 351.868011 504.187988 C 360.830994 515.310974 378.744995 530.893005 380.981995 529.510986 C 381.569 529.14801 381.925995 529.382019 381.774994 530.030029 C 381.395996 531.653992 396.256012 540.09198 407.227997 544.482971 C 429.164978 553.263977 451.041992 556.815002 487 557.432983 C 505.445984 557.75 507.596985 557.671021 497 557.06897 C 479.724976 556.085999 463.015991 552.788025 444 546.606995 C 394.684998 530.580017 357.130005 500.252991 337.371002 460.5 C 328 441.646973 323.940002 428.047974 320.503998 404.013977 C 319.601013 397.697021 318.667999 392.334961 318.431 392.098022 C 318.194 391.860962 318 394.927002 318 398.911011 M -0.584999 411 C -0.584999 421.174988 -0.435997 425.336975 -0.254997 420.25 C -0.072998 415.163025 -0.072998 406.836975 -0.254997 401.75 C -0.435997 396.662964 -0.584999 400.825012 -0.584999 411 M 228.781006 414.447021 C 228.085999 418.262024 228.390991 419.942017 229.56601 418.767029 C 229.877991 418.455017 229.98999 416.468018 229.81601 414.349976 L 229.5 410.5 L 228.781006 414.447021 M 292.709991 416.75 C 293.471985 424.492004 294 424.661987 294 417.166992 C 294 413.775024 293.583008 411 293.071991 411 C 292.544006 411 292.388 413.474976 292.709991 416.75 M 724.814026 419.981018 C 724.150024 424.322998 724.401001 425.932007 725.562988 424.770996 C 725.872009 424.460999 725.984985 422.249023 725.812988 419.854004 L 725.5 415.5 L 724.814026 419.981018 M 530.924011 422.640991 C 529.591003 424.093018 526.499023 426.567993 524.054016 428.140991 C 521.609009 429.713013 520.078979 431 520.653992 431 C 522.05603 431 528.908997 425.914001 531.924011 422.635986 C 533.257996 421.185974 534.124023 420 533.848999 420 C 533.573975 420 532.257996 421.187988 530.924011 422.640991 M 294.070007 430.083008 C 294.109009 432.513 294.550995 435.400024 295.053986 436.5 C 295.656006 437.820007 295.76001 436.458984 295.358002 432.5 C 294.622986 425.247986 293.973999 424.030029 294.070007 430.083008 M 719.83197 441.213989 C 718.927979 444.671021 718.344971 447.661011 718.534973 447.856995 C 719.075989 448.416016 722.195007 437.085022 721.815002 435.94397 C 721.627991 435.38501 720.736023 437.757019 719.83197 441.213989 M 248.123993 445.768982 C 247.553009 446.835999 245.610992 448.422974 243.808014 449.296021 L 240.531006 450.882996 L 244.709991 450.692017 C 247.303009 450.572998 248.536011 450.143982 247.958008 449.564026 C 247.382996 448.984985 247.656006 447.932007 248.674011 446.807983 C 249.579987 445.807007 250.059998 444.72699 249.742004 444.40802 C 249.423004 444.088989 248.695007 444.702026 248.123993 445.768982 M 298.059998 450.812012 C 297.998993 453.14801 300.990997 463.343018 301.566986 462.765991 C 301.739014 462.593994 301.033997 459.314026 300 455.47699 C 298.966003 451.640015 298.092987 449.539978 298.059998 450.812012 M 207.997986 451.75 C 207.997009 452.163025 212.834015 452.382019 218.747986 452.237 C 237.960999 451.767029 239.832001 451.374023 223.75 451.184998 C 215.087006 451.083008 207.998993 451.336975 207.997986 451.75 M 205.377991 476 C 205.377991 482.325012 205.540985 484.913025 205.739014 481.75 C 205.937012 478.586975 205.937012 473.413025 205.739014 470.25 C 205.540985 467.086975 205.377991 469.674988 205.377991 476 M 705.89502 476.01001 C 701.971008 483.601013 700.575012 487.249023 701.23999 488.176025 C 701.963989 489.185974 702.065979 489.114014 701.671997 487.872009 C 701.388977 486.976013 701.53302 485.851013 701.994019 485.372009 C 703.198975 484.119019 712.218994 465.885986 711.828003 465.494995 C 711.646973 465.315002 708.978027 470.046997 705.89502 476.01001 M 309.026001 483.30603 C 308.992004 484.356995 314.794006 496.046997 316.178009 497.713989 C 317.151001 498.887024 316.640991 499.406982 314.786011 499.130005 C 314.393005 499.072021 314.363007 499.78302 314.720001 500.710999 C 315.09201 501.682007 315.528992 501.913025 315.747986 501.255981 C 315.958008 500.627014 316.77301 500.359009 317.55899 500.661011 C 318.345001 500.963013 318.769012 501.565002 318.5 502 C 318.230988 502.434998 318.694 503.052002 319.528992 503.372986 C 320.765015 503.846985 320.850006 503.588989 319.988007 501.97699 C 319.406006 500.890015 318.570007 500 318.131012 500 C 317.692993 500 317.302002 499.437988 317.263 498.75 C 317.182007 497.307983 309.06601 482.091003 309.026001 483.30603 M 690.903992 499.75 C 688.518982 502.913025 684.929993 507.299988 682.927979 509.5 C 679.752014 512.991028 677.815002 517.851013 680.182983 516.387024 C 680.650024 516.098022 680.771973 515.439026 680.453003 514.922974 C 679.625 513.585022 682.22699 511.268982 684.22699 511.562988 C 685.153992 511.698975 686.494995 511.065002 687.205994 510.155029 C 688.333984 508.711975 688.296021 508.658997 686.90802 509.741028 C 686.031982 510.424011 685.046997 510.713989 684.718018 510.38501 C 683.937012 509.604004 686.275024 507.073975 687.239014 507.656982 C 687.64502 507.903015 687.68103 507.33197 687.31897 506.388 C 686.880005 505.244995 687.041016 504.906982 687.799988 505.375977 C 688.497009 505.807007 689.481995 504.804016 690.336975 502.789978 C 691.106018 500.981018 692.89801 498.263 694.320007 496.75 C 695.741028 495.237 696.530029 494 696.072021 494 C 695.61499 494 693.289001 496.586975 690.903992 499.75 M 675.393005 517.75 C 674.382019 519.263 673.674011 520.893005 673.81897 521.372986 C 673.963013 521.853027 673.435974 521.997986 672.646973 521.695007 C 671.854004 521.390015 670.159973 522.278992 668.856018 523.682983 C 667.559998 525.080017 663.913025 528.223999 660.75 530.669983 C 655.383972 534.820007 653.724976 537 655.932983 537 C 656.445984 537 657.119995 536.211975 657.43103 535.25 C 657.966003 533.594971 664.505005 528.5 666.093018 528.5 C 666.5 528.5 667.171021 528.163025 667.583008 527.75 C 668.770996 526.562988 670.192993 526.879028 669.405029 528.155029 C 668.995972 528.815002 669.127014 529.039978 669.710999 528.679016 C 670.270996 528.33197 670.606018 526.913025 670.453003 525.523987 C 670.249023 523.661987 670.645996 523 671.966003 523 C 673.710022 523 675.489014 521.517029 676.164978 519.5 C 676.348999 518.950012 676.744019 518.580994 677.041992 518.68103 C 677.341003 518.780029 677.650024 517.992981 677.72998 516.93103 C 677.924011 514.36499 677.572021 514.487976 675.393005 517.75 M 332.028015 520.536011 C 332.042999 521.065979 335.955994 525.325012 340.722992 530 L 349.390991 538.5 L 342.002991 530.5 C 337.938995 526.099976 334.026001 521.841003 333.307007 521.036011 C 332.588013 520.22998 332.011993 520.005005 332.028015 520.536011 M 215.046997 521.28302 C 214.940002 523.070007 220.130005 531.999023 221.266998 531.984985 C 222.140015 531.973999 222.174011 531.755005 221.382996 531.234985 C 220.769012 530.830994 219.10199 528.25 217.679993 525.5 C 216.256989 522.75 215.071991 520.85199 215.046997 521.28302 M 695.59198 529.500977 C 694.604004 531.007019 693.414978 531.778015 692.705994 531.372009 C 692.04303 530.991028 691.838013 531.052002 692.252014 531.508972 C 693.405029 532.780029 690.031006 535.934998 688.156006 535.338013 C 686.732971 534.88501 686.710999 534.963013 688 535.890015 C 689.346985 536.859985 688.760986 537.435974 686.75 537.117981 C 686.336975 537.052979 686.112 537.562988 686.25 538.25 C 686.388 538.937988 685.937988 539.388 685.25 539.25 C 684.562988 539.112 684 539.648987 684 540.442993 C 684 541.237 683.184998 542.474976 682.189026 543.192993 C 681.192993 543.911987 680.01001 545.174988 679.559998 546 C 679.109985 546.825012 683.16803 543.130005 688.575989 537.788025 C 693.984985 532.447021 698.153992 527.820984 697.841003 527.507019 C 697.526978 527.19397 696.515015 528.091003 695.59198 529.500977 M 132.188995 530.039001 C 129.798004 532.265991 129.225006 533.765991 131.296997 532.372009 C 132.011002 531.893005 131.785995 532.247009 130.796997 533.159973 C 128.626999 535.164978 128.565994 536.260986 130.425003 539.85498 C 132.957993 544.754028 134.738998 545 167.630005 545 C 184.424988 545 197.993011 544.663025 197.781006 544.25 C 197.570007 543.836975 195.717987 540.013 193.667999 535.75 L 189.938995 528 L 162.15799 528 C 135.582001 528 134.281998 528.088013 132.188995 530.039001 M 228.703003 543.630005 C 227.752991 544.580017 236.579987 555.377991 243.915009 562.239014 C 256.320007 573.843994 277.56601 588.004028 280.162994 586.398987 C 280.817993 585.994019 281.037994 586.130005 280.675995 586.716003 C 280.313995 587.299988 283.57901 589.359985 288.270996 591.507996 C 298.992004 596.416016 325.863007 605.268982 328.19101 604.659973 C 329.187012 604.400024 329.795013 604.52301 329.540985 604.934021 C 328.415985 606.754028 365.286987 613.508972 370.992004 612.528992 C 373.231995 612.143982 374.013 612.252991 373.153992 612.830994 C 370.946991 614.315979 381.199005 614.97998 413 615.408997 C 429.224976 615.627991 440.700012 615.627014 438.5 615.406006 C 420.676025 613.619995 413.470001 612.411987 399.5 608.867004 C 375.996002 602.903015 376.13501 602.935974 368 601.333984 C 355.697998 598.911987 350.679993 597.947998 347.25 597.348999 C 345.462006 597.036987 344 596.380005 344 595.890991 C 344 595.401001 342.649994 595 341 595 C 339.350006 595 338 594.549988 338 594 C 338 593.44397 335.333008 593 332 593 C 328.666992 593 326 592.55603 326 592 C 326 591.44397 323.333008 591 320 591 C 316.666992 591 314 590.55603 314 590 C 314 589.450012 312.830994 589 311.401001 589 C 309.803009 589 307.722992 587.844971 306 586 C 303.890015 583.742004 302.308014 583 299.598999 583 C 297.618988 583 296 582.549988 296 582 C 296 581.450012 294.649994 581 293 581 C 291.350006 581 290 580.549988 290 580 C 290 579.450012 288.200012 579 286 579 C 283.799988 579 282 578.549988 282 578 C 282 577.450012 281.100006 577 280 577 C 278.899994 577 278 576.549988 278 576 C 278 575.450012 277.100006 575 276 575 C 274.899994 575 274 574.549988 274 574 C 274 572.573975 270.247009 572.757996 269.764008 574.20697 C 269.497986 575.005981 268.549988 574.65802 266.966003 573.182983 C 265.64801 571.955017 263.992004 571.172974 263.285004 571.44397 C 262.578003 571.715027 262 571.468994 262 570.896973 C 262 569.507996 259.428986 567 258.003998 567 C 257.337006 567 257.117004 567.794006 257.472992 568.916016 C 257.808014 569.969971 257.664001 571.090027 257.153992 571.405029 C 256.643005 571.719971 256.246002 571.421021 256.269989 570.739014 C 256.424011 566.484985 256.015015 565.968994 252.924011 566.513 C 250.712006 566.903015 250.053009 566.723022 250.578003 565.872986 C 251.016998 565.163025 250.881012 564.955994 250.237 565.354004 C 249.535004 565.786987 249.26001 564.814026 249.44101 562.536987 C 249.595001 560.588013 249.30899 559.309021 248.790009 559.630005 C 248.281006 559.945007 248.096008 560.809021 248.381012 561.549988 C 248.720001 562.434998 248.380005 562.698975 247.391998 562.320007 C 246.562988 562.002014 246.097992 561.187988 246.356995 560.512024 C 246.651001 559.744995 246.013 559.346008 244.665009 559.452026 C 241.671997 559.689026 240.522003 558.934998 242.143005 557.799011 C 243.238007 557.031006 243.210999 556.934021 242 557.29303 C 239.914001 557.913025 237.006012 555.148987 237.737 553.242004 C 238.13501 552.205017 237.942993 551.916992 237.170013 552.39502 C 236.467987 552.828979 236 552.494995 236 551.559021 C 236 550.702026 235.458008 550.112 234.795013 550.25 C 234.132996 550.388 233.570007 549.974976 233.545013 549.333984 C 233.519989 548.692993 232.496002 547.296997 231.268005 546.232971 C 230.040985 545.16803 229.328003 544.005005 229.684998 543.64801 C 230.041992 543.291992 230.108002 543 229.833008 543 C 229.558014 543 229.049988 543.283997 228.703003 543.630005 M 621 556 C 617.974976 557.598022 615.85199 558.927002 616.28302 558.953003 C 617.346008 559.017029 627 554.090027 627 553.482971 C 627 552.815002 627.138977 552.757019 621 556 M 384.013 561.833984 C 384.028015 562.578003 399.092987 569.241028 399.604004 568.72998 C 399.78299 568.551025 396.345001 566.776978 391.963989 564.786987 C 387.584015 562.796997 384.006012 561.468018 384.013 561.833984 M 601 564.679016 C 596.523987 566.616028 596.637024 566.453003 598 569 C 598.638977 570.19397 599.414978 570.919006 599.723999 570.609985 C 600.031982 570.301025 599.682983 569.322021 598.945984 568.434998 C 597.817993 567.075989 597.835022 566.85498 599.054016 567.030029 C 601.72998 567.413025 604.607971 566.88501 603.098999 566.286987 C 602.072998 565.880981 602.34198 565.375 604.098999 564.401978 C 607.320007 562.616028 605.357971 562.791992 601 564.679016 M 401.088013 569.380005 C 401.862 570.208984 416.040985 575.020996 417.424988 574.926025 C 418.015991 574.88501 415.5 573.802002 411.834015 572.52002 C 402.623993 569.297974 400.404999 568.650024 401.088013 569.380005 M 602.924988 574 C 602.607971 574.825012 603.096008 577.463989 604.007996 579.862976 L 605.666992 584.22699 L 605.666992 579.413025 C 605.666992 576.330994 605.408997 575.301025 604.952026 576.549988 C 604.353027 578.182007 604.176025 578.01001 603.867981 575.5 C 603.640991 573.64502 603.280029 573.072021 602.924988 574 M 442 580.211975 C 445.025024 580.825012 447.762024 581.718994 448.08197 582.200012 C 448.401978 582.68103 450.427002 582.96698 452.58197 582.835999 C 454.737 582.705994 461.450012 582.757019 467.5 582.950012 C 476.195984 583.22699 477.557983 583.447021 474 584 L 469.5 584.700012 L 473.5 584.851013 L 477.5 585.002014 L 474.640015 587.461975 C 472.065002 589.677002 471.932983 590.075989 473.317993 591.460999 C 474.164978 592.307983 476.013977 593 477.429016 593 C 478.843018 593 480 593.450012 480 594 C 480 594.549988 479.106018 595 478.013977 595 C 476.921997 595 473.921997 595.562988 471.348022 596.25 C 467.604004 597.25 466.583984 597.25 466.250977 596.25 C 465.757019 594.77002 462 594.549011 462 596 C 462 596.549988 462.900024 597 464 597 C 465.099976 597 466 597.512024 466 598.138 C 466 598.94397 467.96698 599.075989 472.75 598.588013 C 480.760986 597.770996 512.705017 591.401001 514.406982 590.281006 C 515.059998 589.851013 514.721985 590.299011 513.655029 591.275024 C 512.588989 592.250977 511.940002 593.27301 512.211975 593.544983 C 513.054993 594.388977 521.125 585.010986 520.468994 583.950012 C 520.129028 583.400024 520.390991 583.073975 521.051025 583.224976 C 521.710022 583.375977 522.476013 582.877991 522.752991 582.117004 C 523.15802 581.002014 522.323975 580.874023 518.442017 581.455994 C 511.247986 582.534973 463.758972 582.299988 454 581.138 C 436.093018 579.005005 436.004028 578.997986 442 580.211975 M 564.127991 580.017029 C 566.674011 580.447021 569.710999 581.309998 570.877991 581.934998 C 572.044983 582.559021 573 582.807007 573 582.484009 C 573 581.315002 565.984009 579.002991 562.781982 579.117981 C 559.984985 579.218018 560.184998 579.351013 564.127991 580.017029 M 628.541016 579.932983 C 627.823975 581.093994 628.622986 587.976013 629.577026 588.854004 C 629.963013 589.208984 629.973022 587.512024 629.601013 585.083008 C 629.119995 581.948975 629.296997 580.427979 630.210999 579.848022 C 631.125 579.268982 631.153015 579.026001 630.309021 579.015015 C 629.653992 579.007019 628.857971 579.419983 628.541016 579.932983 M 554.5 581.164001 C 548.241028 584.617981 541.156006 595 545.059021 595 C 545.640991 595 545.86499 594.591003 545.55603 594.090027 C 544.71698 592.732971 545.992004 590.085999 547.333008 590.398987 C 547.974976 590.549011 548.187988 590.492004 547.80603 590.270996 C 547.424988 590.051025 547.359009 589.22699 547.661011 588.440979 C 547.963013 587.655029 548.682007 587.302979 549.258972 587.659973 C 549.836975 588.017029 550.018982 587.840027 549.666016 587.268005 C 548.88501 586.005005 551.070007 584.08197 555.895996 581.783997 C 557.877991 580.840027 558.825012 580.065979 558 580.064026 C 557.174988 580.062012 555.599976 580.557007 554.5 581.164001 M 785.705017 592.528015 C 784.229004 595.538025 783.234009 598 783.494019 598 C 784.166992 598 789.210999 587.877991 788.762024 587.429016 C 788.557007 587.223999 787.182007 589.518005 785.705017 592.528015 M 607.35498 597.5 C 607.35199 602.450012 607.520996 604.601013 607.731018 602.280029 C 607.940002 599.958984 607.942993 595.908997 607.736023 593.280029 C 607.530029 590.651001 607.357971 592.549988 607.35498 597.5 M 453.25 599.728027 C 455.312988 599.94397 458.687988 599.94397 460.75 599.728027 C 462.812988 599.513 461.125 599.335999 457 599.335999 C 452.875 599.335999 451.187988 599.513 453.25 599.728027 M 396.313995 601.749023 C 405.561005 601.914001 420.411011 601.913025 429.314026 601.747986 C 438.216003 601.58197 430.650024 601.447021 412.5 601.447998 C 394.350006 601.447998 387.06601 601.583008 396.313995 601.749023 M 546.857971 609.679993 C 549.221008 614.208984 558.828979 618.710022 564.044006 617.732971 C 566.075012 617.35199 565.937988 617.249023 563.25 617.135986 C 561.461975 617.060974 560 616.502014 560 615.893005 C 560 615.283997 559.320984 615.046997 558.491028 615.36499 C 556.203003 616.242981 552.458984 614.45697 548.911011 610.794006 C 546.755005 608.56897 546.088989 608.208008 546.857971 609.679993 M 125.606995 610.58197 C 124.643997 613.091003 124.895996 613.52301 126.25 611.684021 C 127.408997 610.109009 132.720993 610.004028 199.154999 610.242981 C 238.565002 610.383972 270.290009 610.169006 269.654999 609.765015 C 269.019989 609.361023 236.485992 609.023987 197.356995 609.015015 C 133.397003 609.002014 126.153 609.159973 125.606995 610.58197 M 272 611.541992 C 272 612.179016 283.509003 617.435974 287.054993 618.419006 C 288.399994 618.791992 285.729004 617.275024 281.119995 615.047974 C 272.321014 610.796997 272 610.674011 272 611.541992 M 604.849976 612 C 604.768005 612.549988 604.655029 613.562988 604.599976 614.25 C 604.544983 614.937988 603.916016 616.116028 603.202026 616.869019 C 602.489014 617.622009 602.184998 618.518005 602.526978 618.861023 C 603.367004 619.700012 605.416992 616.044006 605.674011 613.25 C 605.874023 611.072021 605.153015 609.979004 604.849976 612 M 125 616.848999 C 125 617.46698 126.817993 619.174988 129.039993 620.64502 C 132.248001 622.768005 133.330002 623.062988 134.289993 622.075989 C 135.240997 621.099976 135.177994 620.875977 134 621.034973 C 131.229004 621.40802 130.285004 621.012024 127.636002 618.364014 C 126.186005 616.914001 125 616.231995 125 616.848999 M 511.5 622.601013 C 502.268005 627.598022 502.083008 628.500977 511.237976 623.880005 C 515.122986 621.919006 517.559021 621.176025 517.79303 621.880005 C 517.999023 622.495972 519.028992 623 520.083008 623 C 521.138 623 522 623.47699 522 624.059021 C 522 624.640991 522.526001 624.79303 523.169983 624.39502 C 523.971008 623.900024 524.125 624.231018 523.658997 625.447021 C 523.169983 626.719971 523.372986 627.070984 524.374023 626.687012 C 525.784973 626.14502 531.465027 631.200989 530.513977 632.153015 C 530.231018 632.434998 530.669006 632.666992 531.487 632.666992 C 532.737 632.666992 530.640015 630.046997 522.148987 621 C 521.890991 620.724976 522.049011 621.174988 522.5 622 C 522.979004 622.875977 522.947021 623.158997 522.422974 622.679016 C 521.929016 622.228027 521.52002 621.142029 521.513 620.265991 C 521.492004 617.674011 519.929016 618.039001 511.5 622.601013 M 297.609985 622.455994 C 299.321014 623.245972 302.020996 624.14801 303.609985 624.460999 C 306.083008 624.947998 305.994995 624.83197 303 623.65802 C 301.075012 622.903015 298.375 622.000977 297 621.653015 C 295.119995 621.177002 295.270996 621.375977 297.609985 622.455994 M 594.921021 628.590027 C 593.588989 630.010986 590.362 632.559998 587.75 634.255005 C 585.138 635.950012 583 637.44397 583 637.575012 C 583 638.30603 587.106995 636.575989 588.039978 635.450989 C 588.648987 634.718994 589.901001 634.359985 590.822998 634.653992 C 592.258972 635.112 592.283997 635.03302 591 634.109985 C 589.791016 633.23999 590.083008 633.012024 592.5 632.935974 C 594.150024 632.88501 594.934998 632.614014 594.244019 632.335999 C 592.364014 631.578003 593.79303 630 595.781982 630.638 C 597.241028 631.106018 597.273987 631.026001 596 630.109985 C 594.572021 629.08197 594.684998 628.914001 597 628.625 C 597.549988 628.55603 598.038025 628.125 598.083008 627.666992 C 598.267029 625.828979 597.223022 626.133972 594.921021 628.590027 M 314 627.366028 C 314 628.127991 323.875 631 326.187988 630.911011 C 327.613007 630.85498 326.773987 630.344971 324 629.580017 C 316.312988 627.458984 314 626.947021 314 627.366028 M 618.364014 634.494019 C 618.047974 635.315979 617.375977 635.732971 616.869995 635.419983 C 616.364014 635.106995 616.015015 635.221985 616.093994 635.676025 C 616.171997 636.129028 616.151978 637.174988 616.047974 638 C 615.913025 639.072021 615.612976 638.929993 614.994995 637.5 C 614.242981 635.758972 614.150024 635.848999 614.278992 638.195007 C 614.375 639.937012 614.794006 640.583008 615.463989 640.021973 C 616.880005 638.835022 620.255005 633 619.525024 633 C 619.202026 633 618.679016 633.671997 618.364014 634.494019 M 176 639 C 180.747009 640.992004 184.080994 641.596008 182.450012 640.169006 C 181.451996 639.294983 173.901001 636.960022 172.384003 637.05603 C 171.89801 637.086975 173.524994 637.960999 176 639 M 547 640.750977 C 549.291016 641.789978 553.955994 642.421021 560.5 642.575989 L 570.5 642.812988 L 560.5 642.046021 C 555 641.625 549.232971 640.767029 547.684998 640.140015 C 543.494019 638.442993 542.960999 638.91803 547 640.750977 M 388.768005 640.724976 C 390.565002 640.947021 393.265015 640.942993 394.768005 640.715027 C 396.270996 640.486023 394.799988 640.304016 391.5 640.309998 C 388.200012 640.315002 386.971008 640.502014 388.768005 640.724976 M 409.75 641.745972 C 415.386993 641.924011 424.612 641.924011 430.25 641.745972 C 435.888 641.567993 431.275024 641.421997 420 641.421997 C 408.725006 641.421997 404.113007 641.567993 409.75 641.745972 M 610.614014 644.562988 C 610.283997 645.422974 609.549988 645.840027 608.981995 645.489014 C 608.414978 645.138 608.073975 645.447021 608.224976 646.176025 C 608.405029 647.044006 607.638 647.413025 606 647.247009 C 604.30603 647.075989 603.927002 647.270996 604.825012 647.85199 C 605.817017 648.494995 605.062988 649.651978 601.825012 652.460022 C 599.445984 654.52301 598.849976 655.294983 600.5 654.176025 C 605.236023 650.963013 613.619019 643.093994 612.356995 643.044983 C 611.728027 643.02002 610.94397 643.703979 610.614014 644.562988 M 202.5 646.906982 C 206.022003 648.375 211.588989 649.296997 210.5 648.232971 C 209.950012 647.695984 207.475006 646.98999 205 646.664978 C 202.20401 646.297974 201.256989 646.390015 202.5 646.906982 M 236.5 655.520996 C 239.25 656.312988 242.174988 656.955994 243 656.950012 C 246.265991 656.926025 241.493988 655.247986 236.5 654.664001 L 231.5 654.080017 L 236.5 655.520996 M 497.15802 656.023987 C 489.476013 658.289978 487.473999 659.151978 491.5 658.461975 C 495.635986 657.752014 506.848022 654.185974 505 654.16803 C 504.174988 654.159973 500.645996 654.994995 497.15802 656.023987 M 535.5 661.585999 C 542.072998 664.586975 546 665.530029 546 664.107971 C 546 663.499023 544.927002 663 543.61499 663 C 540.784973 663 534.724976 660.609009 535.525024 659.807983 C 535.83197 659.500977 534.827026 659.262024 533.291992 659.276978 C 530.862 659.299988 531.14801 659.598999 535.5 661.585999 M 280.513 662.979004 C 279.97699 663.846008 292.839996 665.492981 293.670013 664.663025 C 293.951996 664.380981 292.005005 663.867981 289.34201 663.52301 C 286.678986 663.177979 283.713013 662.736023 282.751007 662.541992 C 281.789001 662.346985 280.782013 662.544006 280.513 662.979004 M 457 664 C 454.343994 664.559021 454.103027 664.755005 456 664.810974 C 457.375 664.851013 460.299988 664.512024 462.5 664.057007 C 465.833984 663.367981 466.000977 663.232971 463.5 663.247009 C 461.849976 663.255981 458.924988 663.594971 457 664 M 577.71698 663.616028 C 577.379028 663.955017 575.616028 664.620972 573.801025 665.096985 C 570.919006 665.85199 571.059021 665.895996 574.903992 665.44397 C 579.934998 664.853027 583.97998 663.08197 580.416992 663.030029 C 579.270996 663.013977 578.05603 663.276978 577.71698 663.616028 M 442 666.052979 C 439.747009 666.560974 440.994019 666.64801 445.5 666.297974 C 449.349976 665.999023 452.687988 665.583984 452.916992 665.377014 C 453.630981 664.731018 445.677979 665.223022 442 666.052979 M 550.5 666.117981 C 555.723022 667.119019 570.002014 667.216003 569.994995 666.25 C 569.992004 665.836975 564.703979 665.46698 558.244995 665.426025 C 550.172974 665.375 547.750977 665.59198 550.5 666.117981 M 426.768005 667.724976 C 428.565002 667.947021 431.265015 667.942993 432.768005 667.715027 C 434.270996 667.486023 432.799988 667.304016 429.5 667.309998 C 426.200012 667.315002 424.971008 667.502014 426.768005 667.724976 M 362.75 669.747986 C 370.587006 669.916992 383.411987 669.916992 391.25 669.747986 C 399.087006 669.578979 392.674988 669.440979 377 669.440979 C 361.325012 669.440979 354.911987 669.578979 362.75 669.747986 M 116 693.5 C 118.987 696.525024 121.656998 699 121.932007 699 C 122.207001 699 119.987 696.525024 117 693.5 C 114.013 690.474976 111.343002 688 111.067993 688 C 110.792999 688 113.013 690.474976 116 693.5 M 700.971008 704.75 L 694.5 711.5 L 701.25 705.028992 C 704.961975 701.469971 708 698.432007 708 698.278992 C 708 697.54303 706.981995 698.47998 700.971008 704.75 M 598 776 C 594.974976 777.598022 592.85199 778.927002 593.28302 778.953003 C 594.346008 779.017029 604 774.090027 604 773.482971 C 604 772.815002 604.138977 772.757019 598 776 M 236 779 C 240.125 781.145996 243.950012 782.901001 244.5 782.901001 C 245.049988 782.901001 242.125 781.145996 238 779 C 233.875 776.854004 230.049988 775.098999 229.5 775.098999 C 228.950012 775.098999 231.875 776.854004 236 779 M 392.727997 818.721985 C 394.502991 818.942993 397.653015 818.945984 399.727997 818.72998 C 401.802002 818.513 400.350006 818.333008 396.5 818.328003 C 392.649994 818.323975 390.951996 818.500977 392.727997 818.721985 M 430.768005 818.724976 C 432.565002 818.947021 435.265015 818.942993 436.768005 818.715027 C 438.270996 818.486023 436.799988 818.304016 433.5 818.309998 C 430.200012 818.315002 428.971008 818.502014 430.768005 818.724976 M 929.406982 891 C 929.406982 900.075012 929.559021 903.788025 929.744019 899.25 C 929.929016 894.711975 929.929016 887.288025 929.744019 882.75 C 929.559021 878.211975 929.406982 881.924988 929.406982 891"/>
    <path id="path1" fill="#00182c" fill-rule="evenodd" stroke="none" d="M 389.356995 0.992981 C 325.158997 5.48999 258.847992 26.640015 202 60.752014 C 135.705002 100.531982 79.337006 159.997986 44.888 226.5 C 14.898003 284.391968 -0.045998 345.983032 0.021004 411.411011 C 0.080002 469.93103 11.877998 522.991028 37.511002 580.023987 C 55.921997 620.989014 88.141998 665.90802 123.281998 699.598022 C 173.881012 748.109985 234.894012 783.77301 299.114014 802.372009 C 385.277008 827.328003 478.419006 823.442017 563 791.362976 C 581.882019 784.200989 617.960999 766.323975 634.838989 755.767029 C 649.187012 746.791992 675.44397 727.614014 686 718.398987 C 756.182983 657.132019 800.90802 582.927979 820.348999 495.5 C 833.669006 435.598022 832.989014 374.046021 818.361023 315.5 C 797.198975 230.809998 750.025024 156.552002 679.487976 96.898987 C 645.924011 68.514038 597.598999 41.039001 553.239014 25.120972 C 521.10199 13.588989 488.929993 6.094971 456 2.471008 C 439.151978 0.617004 405.408997 -0.132019 389.356995 0.992981 M 485 121.971985 C 471.107971 124.632996 456.216003 134.820007 445.309021 149.122986 L 441.679993 153.880981 L 436.090027 149.494995 C 415.307007 133.188965 392.94101 134.981995 372.057007 154.629028 C 359.209991 166.713989 340.355988 192.983032 331 211.832031 C 326.964996 219.959961 329.522003 219.011963 305 221.469971 C 269.375 225.041016 245.455994 229.18103 211.920013 237.580994 C 174.769012 246.886963 128.397995 262.927002 121.75 268.770996 C 119.399994 270.837036 119.537994 275.125977 122.039001 277.811035 C 124.037994 279.958008 124.595993 280 150.869003 280 L 177.660004 280 L 192.079987 272.674011 C 214.674988 261.19397 240.292999 253.789001 266.826996 251.06604 C 272.471985 250.485962 290.054993 249.713989 305.899994 249.348999 L 334.709991 248.684998 L 338.933014 240.093018 C 356.029999 205.299988 381.812988 169.113037 393.434998 163.598022 C 398.36499 161.259033 406.848999 160.464966 411.283997 161.928955 C 416.707001 163.718018 426.021973 170.096008 435.398987 178.438965 L 443.838013 185.947021 L 450.052002 176.223999 C 456.895996 165.511963 468.083008 150.229004 472.61499 145.398987 C 481.492981 135.937012 492.392029 135.837036 515.140015 145.007996 C 549.632019 158.914001 590.435974 185.540039 638.640015 225.594971 C 676.338013 256.920044 694.991028 278.733032 709.344971 308.278015 C 721.752014 333.815002 727.30603 358.832031 727.265015 389 C 727.223022 419.801025 720.491028 447.52002 706.359009 475.080994 C 686.809998 513.203979 651.750977 543.901978 606.5 562.518982 C 601.549988 564.554993 597.34198 566.367004 597.148987 566.546021 C 596.955017 566.723999 598.390015 569.486023 600.336975 572.684998 C 605.619995 581.362976 607.301025 588.426025 606.810974 599.887024 C 606.460022 608.119019 605.950012 610.434021 603.265015 616 C 599.289978 624.241028 594.536011 629.786011 587.366028 634.544983 C 572.56897 644.367004 551.929016 644.580017 537.099976 635.064026 C 532.356995 632.02002 525.072998 624.875 521.997009 620.247986 L 520.5 617.995972 L 511 622.906982 C 493.814026 631.791992 472.731995 637.643005 449.077026 640.093018 C 434.492004 641.604004 391.269989 640.729004 373.5 638.564026 C 336.751007 634.085022 304.69101 625.737 278.778992 613.898987 L 268.054993 609 L 197.13501 609 C 119.098007 609 125 608.507996 125 615.013977 C 125 618.804016 128.113998 620.922974 141.658005 626.346985 C 197.640015 648.765991 252.628998 661.684021 317.5 667.656006 C 341.440002 669.859985 407.197998 670.179993 428.5 668.195984 C 458.120972 665.437988 485.549011 660.598022 506.18103 654.487 L 517.942993 651.002991 L 525.513977 655.945984 C 538.567017 664.46698 550.728027 667.702026 565.984985 666.713989 C 593.236023 664.947998 618.731018 644.479004 627.281006 617.5 C 629.16803 611.549011 629.5 608.228027 629.5 595.335022 L 629.5 580.171021 L 634.71698 577.612 C 643.190002 573.45697 657.151978 564.502991 666.875 556.989014 C 712.372009 521.827026 740.979004 472.288025 748.526978 415.593018 C 750.63501 399.756958 750.153015 367.640991 747.594971 353.5 C 742.56897 325.716003 731.432007 298.084961 715.919006 274.916016 C 698.541992 248.963013 669.815979 220.18396 632 190.843018 C 574.299988 146.073975 511.869019 116.823975 485 121.971985 M 485.698975 164.30896 C 479.14502 172.536987 474.174988 180.002991 463.169983 198.156006 L 460.953003 201.812012 L 468.599976 210.656006 C 472.80603 215.52002 476.572998 219.859985 476.973022 220.299011 C 477.372009 220.739014 483.054016 220.207031 489.598999 219.117004 C 515.155029 214.860962 541.184021 213.405029 564 214.954956 C 573.075012 215.571045 582.187988 216.460999 584.25 216.932983 C 586.312988 217.403992 588 217.416016 588 216.959961 C 588 215.500977 568.945007 200.955994 555.03302 191.795044 C 535.71698 179.075989 509.93103 166.323975 493.906006 161.565002 L 489.036987 160.119019 L 485.698975 164.30896 M 398.723999 188.242004 C 386.511993 202.688965 372.326996 225.208984 359.507996 250.5 C 319.990997 328.463989 308.437012 402.791016 327.096008 459 C 340.411011 499.109985 369.041992 529.325012 408.640015 545.05603 C 427.838989 552.682007 449.698975 556.432983 481.510986 557.557983 C 520.66803 558.942993 557.48999 554.072021 587.919983 543.47998 C 653.474976 520.661011 695.156982 471.142029 704.482971 405 C 711.297974 356.661011 695.085022 305.437988 663.314026 274.937012 C 636.098999 248.80896 601.073975 237.631958 546.5 237.661011 C 522.52301 237.672974 506.822998 239.188965 484.794983 243.615967 L 471.776001 246.233032 L 464.250977 237.867004 C 447.517029 219.261963 422.112976 196.153992 406.334015 185.184998 L 403.167999 182.984009 L 398.723999 188.242004 M 272 275.078979 C 231.080994 278.962036 201.832001 290.510986 181.210999 310.927979 C 165.042999 326.937012 156.837997 343.922974 155.166 364.848022 L 154.434998 374 L 196.75 374 C 242.625 374 243.575012 374.10199 247.806 379.47998 C 252.701996 385.704956 250.950012 394.445007 244 398.471985 C 240.575012 400.457031 238.746002 400.506958 158.542999 400.830994 C 68.731995 401.195007 72.645996 400.916016 69.410995 407.171997 C 67.556 410.757996 68.011993 415.843018 70.531998 419.689026 C 74.078995 425.10199 72.363007 425 159.718002 425.004028 C 238.024994 425.007019 240.597992 425.067017 243.696014 426.955994 C 252.807007 432.512024 252.937012 444.346985 243.937988 449.172974 C 241.042999 450.726013 238.114014 451 224.437012 451 L 208.342987 451 L 207.052002 456.25 C 204.919006 464.921021 204.583008 482.325989 206.35199 492.5 C 212.100006 525.557983 230.792999 554.408997 260.165009 575.557983 C 289.162994 596.435974 336.498993 610.961975 389 615.09198 C 407.765015 616.567993 447.030029 615.713013 460.822021 613.528992 C 480.729004 610.375 499.278992 603.395996 511.104004 594.612 C 515.526978 591.327026 523.700989 582.310974 522.890991 581.612 C 522.676025 581.426025 514.625 581.60498 505 582.01001 C 453.809998 584.164978 419.867981 578.406982 386.5 561.90802 C 341.894989 539.85199 311.93399 502.437012 299.532013 453.301025 C 292.209015 424.289978 291.567993 393.502014 297.545013 358 C 301.714996 333.235962 310.713989 302.143005 319.927002 280.666992 C 321.066986 278.009033 322 275.421021 322 274.916992 C 322 273.807007 284.114014 273.929993 272 275.078979 M 84.5 318.536011 C 82.850006 319.374023 80.712997 320.995972 79.75 322.140991 C 76.013 326.583984 78.953003 336.890991 84.565994 339.025024 C 85.975998 339.561035 97.473999 340 110.117004 340 L 133.104004 340 L 134.115997 337.098022 C 134.671997 335.500977 136.899002 330.731995 139.063995 326.497986 C 141.229004 322.265015 143 318.395996 143 317.901001 C 143 317.388 131.050003 317.002991 115.25 317.005981 C 92.378006 317.010986 86.973007 317.280029 84.5 318.536011 M 493.070007 343.966003 C 483.098022 347.661011 475.940002 354.14502 470.987 363.971985 C 467.955017 369.988037 467.072998 373.182007 466.062012 381.820007 C 464.177002 397.919006 469.008972 413.164978 479.215027 423.31897 C 487.280029 431.343018 492.455017 433.466003 504 433.484009 C 512.234009 433.497986 514.262024 433.143005 519.218018 430.820007 C 534.557007 423.630981 544.015015 407.307007 543.987976 388.067993 C 543.968018 373.726013 540.171997 363.541016 531.257996 353.911987 C 523.807983 345.86499 517.153992 342.728027 506.607971 342.290039 C 500.330017 342.030029 497.273987 342.407959 493.070007 343.966003 M 629.276978 344.025024 C 610.078003 350.291016 598.025024 376.182007 603.125 400.200989 C 605.763 412.622009 616.244995 426.611023 626.309021 431.140991 C 630.567017 433.057983 633.208008 433.47998 641 433.489014 C 649.234985 433.499023 651.263 433.142029 656.236023 430.812012 C 683.171021 418.187988 689.31897 375.192017 667.333008 353.203003 C 657.114014 342.983032 642.940979 339.565002 629.276978 344.025024 M 538.606018 466.328979 C 532.260986 468.244995 530.5 471.611023 530.5 481.827026 C 530.5 489.739014 530.817017 491.15802 534.111023 498 C 538.758972 507.653015 544.593994 514.164978 551.71698 517.650024 C 570.197998 526.692017 592.085022 512.966003 598.507996 488.307007 C 600.502014 480.653992 600.388 476.68103 598.044006 472.085999 C 594.750977 465.632019 591.732971 464.987 565.22998 465.077026 C 550.913025 465.125 541.059021 465.588989 538.606018 466.328979 M 95.763 481.565002 C 90.266006 484.547974 88.444 492.119995 91.945999 497.432983 C 95.602997 502.97998 95.139999 502.926025 139.875 502.965027 L 181.25 503 L 180.691986 500.208984 C 180.38501 498.674011 179.584991 493.499023 178.915009 488.708984 L 177.696991 480 L 138.098007 480.039978 C 105.024002 480.072998 98.048996 480.325012 95.763 481.565002 M 132.266998 529.966003 C 129.320007 532.710999 128.610001 535.64502 130.050003 539.120972 C 132.388 544.765015 133.886002 545 167.533997 545 C 184.381989 545 197.993011 544.663025 197.781006 544.25 C 197.570007 543.836975 195.717987 540.013 193.667999 535.75 L 189.938995 528 L 162.15799 528 C 135.919006 528 134.259995 528.109009 132.266998 529.966003 M 556.637024 580.411987 C 548.773987 583.322998 543.744019 590.33197 543.674011 598.473999 C 543.596008 607.427979 548.539001 614.112976 557.353027 616.973022 C 565.903015 619.747009 577.064026 614.538025 580.586975 606.127991 C 586.880981 591.10498 571.721008 574.827026 556.637024 580.411987"/>
    <path id="path2" fill="#9ae7fb" fill-rule="evenodd" stroke="none" d="M 485 122.906982 C 480.030029 123.755005 471.427979 127.049988 467.218018 129.718994 C 461.413025 133.39801 457.086975 137.335999 457.690002 138.393982 C 458.036987 139.002014 457.940979 139.155029 457.476013 138.731995 C 456.463989 137.812988 450 143.833984 450 145.695984 C 450 146.412964 449.297974 147 448.440979 147 C 447.583984 147 447.159973 147.450012 447.5 148 C 447.840027 148.549988 447.640991 149 447.059021 149 C 446.47699 149 446 149.75 446 150.666992 C 446 151.583008 445.737 152.071045 445.416992 151.75 C 445.096008 151.428955 443.981018 152.019043 442.939026 153.061035 C 440.914001 155.085999 438 154.692017 438 152.393005 C 438 151.627014 437.46698 151 436.814026 151 C 436.161987 151 434.700012 150.134033 433.564026 149.075012 C 432.429016 148.015991 430.841003 147.004028 430.034973 146.825012 C 429.229004 146.645996 427.864014 145.671021 427.000977 144.65802 C 426.138 143.643982 424.247986 142.744019 422.799988 142.65802 C 421.353027 142.570984 420.372009 142.296021 420.619995 142.046997 C 421.572998 141.093018 412.244995 139.030029 406.915009 139.015015 C 399.415009 138.994995 384.20401 143.903015 385.460999 145.937012 C 385.746002 146.39801 385.196014 146.712036 384.239014 146.636963 C 383.28299 146.562012 382.606995 147.046021 382.738007 147.713989 C 382.88501 148.464966 382.34201 148.684998 381.313995 148.290039 C 380.074005 147.813965 379.811005 148.063965 380.274994 149.275024 C 380.712006 150.414001 380.468994 150.733032 379.458008 150.346008 C 377.584991 149.627014 358.734009 168.864014 359.459015 170.754028 C 359.743988 171.497009 359.532013 171.828979 358.989014 171.493042 C 358.445007 171.156982 358 171.609985 358 172.5 C 358 173.390015 357.539001 173.833008 356.975006 173.484985 C 356.411987 173.135986 356.015015 173.221985 356.093994 173.676025 C 356.445007 175.700012 355.915985 177.06604 355 176.5 C 354.450012 176.160034 354 176.567993 354 177.406006 C 354 178.244019 353.100006 179.411011 352 180 C 350.899994 180.588989 349.994995 181.842041 349.989014 182.785034 C 349.983002 183.728027 348.454987 185.97998 346.592987 187.789001 C 344.169006 190.144043 343.345001 191.705994 343.69101 193.289001 C 344.079987 195.072021 343.966003 195.209961 343.10199 194 C 342.200012 192.737 342.028015 192.72699 342.015015 193.936035 C 342.006989 194.724976 341.106995 196.322021 340.015015 197.484009 C 338.924011 198.645996 337.911011 201.223022 337.765015 203.210999 C 337.576996 205.77002 337.169006 206.551025 336.367004 205.886963 C 335.617004 205.266968 335.024994 205.493042 334.617004 206.55603 C 333.703003 208.937012 333.867004 210.200012 335 209.5 C 336.627991 208.494019 336.140015 209.641968 334.308014 211.127991 C 332.851013 212.30896 332.722992 212.291016 333.381989 211 C 333.803986 210.174988 333.440002 210.372986 332.574005 211.44104 C 331.674011 212.551025 331.406006 213.632996 331.946991 213.967041 C 332.535004 214.330994 332.540985 215.110962 331.963013 216.026001 C 331.141998 217.322998 331.028992 217.322998 331.015015 216.026978 C 331.002991 214.868042 329.145996 216.834961 327.556 219.692017 C 327.497986 219.796997 324.311005 220.156982 320.475006 220.490967 C 289.760986 223.164001 261.321991 227.22998 239 232.139038 C 228.825012 234.377014 219.375 236.424988 218 236.688965 C 214.946014 237.276001 197.056 242.203979 183.5 246.192017 C 164.67099 251.730957 143.130005 259.401001 143.718994 260.35498 C 144.044006 260.880005 143.813004 261.002014 143.207001 260.627991 C 141.514999 259.582031 125.110992 266.588013 122.399994 269.514038 C 119.425003 272.723022 119.421997 273.273987 122.365005 276.447998 L 124.729004 279 L 151.929993 279 C 177.602997 279 181.908997 278.610962 184 276.099976 C 184.274994 275.77002 186.622986 274.391968 189.21701 273.039001 C 192.501007 271.325012 193.565002 270.30896 192.71701 269.69397 C 191.911987 269.109985 192.117004 269.010986 193.321991 269.401978 C 194.325012 269.72699 197.697998 268.821045 200.821991 267.386963 C 227.158997 255.302979 260.432007 249 297.885986 249 C 307.679993 249 319.816986 248.707031 324.858002 248.348999 C 333.944 247.703979 334.040985 247.669006 336.131989 244.286987 C 337.290985 242.410034 338.304993 239.583984 338.38501 238.005981 C 338.463989 236.428955 338.884003 234.782959 339.316986 234.348999 C 339.751007 233.916016 339.81601 234.447021 339.462006 235.530029 C 339.108002 236.614014 340.166992 235.291016 341.81601 232.589966 C 343.464996 229.890015 344.583008 227.077026 344.299988 226.339966 C 344.016998 225.603027 344.235992 225 344.786987 225 C 345.934998 225 356.307007 208.141968 356.322998 206.25 C 356.32901 205.562012 356.544006 205.210999 356.802002 205.468994 C 357.235992 205.903015 370 187.618042 370 186.562988 C 370 186.302979 371.011993 185.014038 372.25 183.697998 C 373.488007 182.380981 375.625 179.804993 377 177.973022 C 380.453003 173.372009 390.385986 163.585999 392.095001 163.101013 C 399.891998 160.890015 403.790009 160 405.683014 160 C 408.811005 160 417.04599 162.903015 418.749023 164.605957 C 419.526001 165.382996 420.575012 165.763 421.080994 165.450012 C 421.585999 165.138 422 165.303955 422 165.821045 C 422 166.337036 424.586975 168.712036 427.75 171.098022 C 433.146973 175.170044 437.588013 178.860962 440.567993 181.75 C 441.276978 182.437988 442.508972 183 443.30603 183 C 444.833984 183 447.874023 180.010986 446.372009 179.984985 C 445.893005 179.976013 445.986023 179.639038 446.578979 179.234985 C 448.784973 177.733032 456.963013 164.749023 456.338989 163.739014 C 455.981995 163.162964 456.161011 162.981995 456.736023 163.337036 C 458.111023 164.187012 461.137024 159.52002 460.421021 157.653992 C 460.114014 156.85498 460.338989 155.907959 460.919983 155.549011 C 461.586975 155.136963 461.742004 155.562012 461.341003 156.697998 C 460.603027 158.791016 461.588013 157.921997 464.815002 153.631958 C 466.002014 152.054993 466.684021 150.297974 466.33197 149.728027 C 465.969971 149.141968 466.174011 148.98999 466.802002 149.377014 C 467.419006 149.759033 468.664978 148.915039 469.607971 147.474976 C 472.103027 143.667969 479.106995 139.208984 484.484985 138.002991 C 491.666992 136.393982 503.848999 139.026001 518 145.245972 C 525.187012 148.405029 547.450989 159.43396 548 160.106995 C 548.820984 161.11499 555 164.098022 555 163.487 C 555 163.176025 555.984985 163.839966 557.189026 164.960999 C 558.392029 166.082031 559.96698 167 560.689026 167 C 561.409973 167 562 167.420044 562 167.932983 C 562 168.446045 562.896973 169.150024 563.994019 169.497986 C 565.091003 169.846008 566.617981 170.76001 567.387024 171.530029 C 568.156006 172.299011 569.382996 173.057007 570.114014 173.213989 C 570.843994 173.370972 572.804993 174.734985 574.471008 176.244995 C 576.137024 177.755005 577.856018 178.993042 578.291992 178.994995 C 578.72699 178.997986 580.049988 179.900024 581.22998 181 C 583.184021 182.820007 585.104004 183.479004 587.323975 183.093994 C 587.778015 183.015015 587.867004 183.406982 587.521973 183.963989 C 587.177979 184.521973 589.057007 186.312012 591.697998 187.942993 C 594.338989 189.572998 597.416016 191.828003 598.534973 192.953979 C 599.655029 194.078979 601.132019 195 601.81897 195 C 602.505981 195 604.515015 196.379028 606.283997 198.065002 C 614.091003 205.506958 618.223022 208.442993 619.330017 207.337036 C 619.697998 206.968018 620 207.303955 620 208.083008 C 620 209.716003 626.671997 215.333008 628.611023 215.333008 C 629.327026 215.333008 629.702026 215.674011 629.44397 216.089966 C 629.187012 216.505981 630.44397 217.886963 632.237976 219.156982 C 634.031982 220.427002 636.984009 222.94397 638.797974 224.747986 C 644.510986 230.432007 652.142029 236.030029 653.247009 235.346985 C 653.830994 234.985962 654.036011 235.131958 653.703003 235.671021 C 653.088989 236.665039 659.116028 243 660.677002 243 C 661.143982 243 661.969971 243.960999 662.513 245.136963 C 663.05603 246.312012 663.950012 247.297974 664.5 247.328979 C 665.049988 247.359009 668.111023 250.109985 671.302002 253.442017 C 674.492981 256.773987 677.564026 259.375977 678.127014 259.224976 C 678.689026 259.073975 678.851013 259.43103 678.487976 260.019043 C 677.622009 261.420044 679.924011 264.165039 681.268005 263.333984 C 681.872009 262.960999 682.01001 263.174988 681.594971 263.844971 C 681.203003 264.47998 681.328003 265 681.874023 265 C 682.419006 265 683.153015 265.906982 683.505005 267.015015 C 683.856018 268.122986 684.562012 268.770996 685.072021 268.455994 C 685.58197 268.140015 686 268.583984 686 269.44104 C 686 270.297974 686.336975 271.011963 686.75 271.026978 C 687.163025 271.041992 688.590027 272.821045 689.921021 274.97998 C 691.252991 277.139038 692.716003 278.676025 693.171021 278.394043 C 693.627014 278.112 694 278.627014 694 279.536987 C 694 281.868042 697.950012 287.148987 699.143005 286.411011 C 699.687988 286.075012 700.004028 286.406982 699.844971 287.150024 C 699.499023 288.766968 708.409973 305.256958 709.202026 304.464966 C 709.505005 304.161987 710.028015 304.631958 710.36499 305.509033 C 710.702026 306.385986 710.567993 306.851013 710.06897 306.541992 C 709.56897 306.234009 710.34198 308.655029 711.786011 311.921997 C 713.22998 315.190002 714.656982 317.712036 714.955994 317.528015 C 715.255005 317.343018 715.570984 318.372009 715.65802 319.815002 C 715.744995 321.257996 716.307007 322.60199 716.90802 322.802979 C 717.508972 323.002991 718 323.849976 718 324.68396 C 718 325.519043 719.312988 330.769043 720.91803 336.351013 C 725.026001 350.640015 727.059021 363.364014 727.723999 378.93103 C 728.286011 392.096985 726.424988 423.984009 725.034973 425 C 724.658997 425.275024 723.538025 429.325012 722.544983 434 C 719.442017 448.60199 706.888977 479.241028 700.877014 486.882996 C 699.369995 488.799988 699.223999 489.525024 700.219971 490.156982 C 701.247986 490.809021 701.23999 490.971985 700.179016 490.984985 C 699.452026 490.992981 698.182007 491.674988 697.356995 492.5 C 696.531982 493.325012 696.093018 494 696.380981 494 C 696.669006 494 695.741028 495.237 694.320007 496.75 C 692.89801 498.263 691.112976 500.961975 690.354004 502.75 C 689.594971 504.538025 688.728027 506 688.427979 506 C 688.127014 506 688.166992 505.437988 688.515015 504.75 C 688.862976 504.062988 688.455017 504.400024 687.607971 505.5 C 686.760986 506.599976 685.630005 508.015015 685.093994 508.643005 C 683.656006 510.33197 685.059998 511.182007 686.90802 509.741028 C 688.296021 508.658997 688.333984 508.711975 687.205994 510.155029 C 686.494995 511.065002 685.153992 511.698975 684.22699 511.562988 C 682.22699 511.268982 679.625 513.585022 680.453003 514.922974 C 680.771973 515.439026 680.505981 516.187012 679.862 516.585022 C 679.130981 517.036987 678.958984 516.875977 679.405029 516.155029 C 679.796997 515.52002 679.640991 515 679.059021 515 C 678.088013 515 677.586975 516.382996 677.882019 518.25 C 677.947021 518.661987 677.661987 518.890991 677.25 518.757996 C 676.836975 518.625 675.387024 519.299988 674.026978 520.257996 C 672.66803 521.216003 672.015015 522 672.577026 522 C 673.140015 522 674.231018 521.437988 675.002014 520.75 C 676.19397 519.687012 676.205994 519.760986 675.078979 521.25 C 674.351013 522.211975 673.072998 523 672.239014 523 C 671.406006 523 668.846008 524.687012 666.552002 526.75 C 664.257996 528.812988 661.169983 531.51001 659.690002 532.742981 C 658.210999 533.97699 657 535.458984 657 536.036987 C 657 536.61499 656.437988 536.971008 655.75 536.827026 C 654.034973 536.471008 645.903992 542.034973 646.567993 543.111023 C 646.862976 543.586975 646.452026 543.72699 645.656006 543.421021 C 644.822998 543.10199 643.526001 543.838989 642.604004 545.155029 C 641.721985 546.414978 641 547.107971 641 546.697021 C 641 546.284973 639.63501 546.653992 637.96698 547.517029 C 636.299011 548.379028 635.208008 549.526978 635.541992 550.067017 C 635.875 550.607971 635.778015 550.984985 635.323975 550.906006 C 634.870972 550.828003 633.599976 550.822998 632.5 550.896973 C 630.802002 551.01001 630.726013 551.192993 632 552.109985 C 633.281982 553.031982 633.255981 553.111023 631.815979 552.651001 C 630.890015 552.35498 626.840027 553.786011 622.815979 555.830017 C 618.791992 557.874023 612.442993 560.846985 608.70697 562.437988 C 604.89502 564.060974 602.408997 565.63501 603.041992 566.026001 C 603.744995 566.460022 603.383972 566.927979 602.083008 567.268005 C 600.935974 567.567993 600.245972 567.411011 600.551025 566.91803 C 600.85498 566.426025 600.445984 566.275024 599.640991 566.583984 C 598.413025 567.05603 598.515015 567.775024 600.276978 571.077026 C 601.723022 573.786987 602.624023 574.619019 603.172974 573.755005 C 603.676025 572.961975 604.000977 573.604004 604.054993 575.5 C 604.130981 578.148987 604.250977 578.265991 605.085999 576.5 C 605.906006 574.763 605.96698 574.833984 605.549988 577.036987 C 605.284973 578.432983 605.723022 582.03302 606.521973 585.036987 C 608.26001 591.565979 608.424988 602.953979 606.862 608.5 C 606.242004 610.700012 605.682007 613.223022 605.617004 614.106995 C 605.552979 614.991028 604.690002 616.791016 603.700012 618.106995 C 602.710999 619.422974 601.862976 620.950012 601.815979 621.5 C 601.768982 622.049988 600.861023 623.109009 599.797974 623.854004 C 598.734985 624.598022 598.101013 625.820984 598.388977 626.572021 C 598.677002 627.322021 598.413025 628.244995 597.802002 628.622009 C 597.070984 629.073975 596.969971 628.828979 597.507019 627.905029 C 597.955017 627.132019 597.119995 627.594971 595.651001 628.934021 C 593.677002 630.731995 593.307983 631.578003 594.239014 632.169006 C 595.05603 632.687012 594.573975 632.974976 592.872009 632.984985 C 591.427002 632.992981 589.695007 633.661987 589.02301 634.471985 C 587.260986 636.594971 578.033997 640.625 571.679016 642.046997 C 563.174988 643.950012 551.718018 642.887024 544 639.478027 C 540.424988 637.898987 536.223999 635.567993 534.664978 634.296997 C 533.106018 633.026001 531.30603 632.286987 530.664978 632.653992 C 530.023987 633.02002 529.843994 632.942017 530.263977 632.47998 C 531.359985 631.273987 526.044006 626.046021 524.374023 626.687012 C 523.372986 627.070984 523.169983 626.719971 523.658997 625.447021 C 524.164978 624.127991 523.995972 623.883972 523 624.5 C 522.026001 625.10199 521.830994 624.882019 522.286011 623.695984 C 522.630981 622.797974 522.413025 621.755005 521.802002 621.377991 C 521.129028 620.961975 520.971985 621.145996 521.405029 621.844971 C 521.85199 622.56897 521.380981 623 520.142029 623 C 519.05603 623 518.01001 622.530029 517.817993 621.955017 C 517.619995 621.359009 513.60199 622.679993 508.484985 625.021973 C 503.54303 627.284973 498.599976 629.536011 497.5 630.026001 C 493.244995 631.921997 475.164978 636.890991 468.5 637.997009 C 464.650024 638.63501 460.825012 639.395996 460 639.685974 C 453.289001 642.046997 396.990997 642.057983 376.578003 639.702026 C 368.92099 638.817993 362.313995 638.30603 361.897003 638.564026 C 361.480011 638.822021 360.855988 638.575012 360.51001 638.015991 C 360.165009 637.45697 358.67099 636.994995 357.19101 636.989014 C 355.710999 636.984009 349.100006 635.844971 342.5 634.458008 C 335.899994 633.072021 328.924988 631.68103 327 631.367981 C 325.075012 631.054993 320.994995 629.94397 317.933014 628.898987 C 314.872009 627.85498 311.459015 627 310.350006 627 C 309.240997 627 308.052002 626.718994 307.709015 626.375977 C 306.772003 625.439026 293.761993 621.091003 291.75 621.041992 C 290.787994 621.018982 290 620.598999 290 620.107971 C 290 619.617981 288.816986 618.919983 287.371002 618.557007 C 285.924988 618.19397 280.997009 616.125977 276.420013 613.961975 L 268.098999 610.028015 L 198.106995 610.028015 C 136.074005 610.028015 127.938004 610.205017 126.557999 611.585022 C 124.360992 613.781006 124.608994 615.335999 127.636002 618.364014 C 130.251007 620.978027 131.246994 621.408997 133.850006 621.052002 C 134.593002 620.950012 134.904007 621.346008 134.541 621.932983 C 134.164993 622.54303 134.679001 623 135.740997 623 C 136.763 623 138.061996 623.461975 138.626007 624.026001 C 140.089005 625.489014 152.718002 629.948975 153.417007 629.25 C 153.738007 628.929016 154 629.143982 154 629.728027 C 154 630.310974 159.962997 632.674011 167.25 634.978027 C 174.537994 637.28302 181.399994 639.551025 182.5 640.018005 C 183.600006 640.484985 186.075012 641.343994 188 641.926025 C 189.924988 642.507996 193.638 643.65802 196.25 644.47998 C 198.863007 645.302979 202.912994 646.268005 205.25 646.625 C 207.588013 646.981018 209.950012 647.59198 210.5 647.981018 C 211.049988 648.370972 213.75 649.237976 216.5 649.90802 C 219.25 650.578003 223.075012 651.565002 225 652.10199 C 226.924988 652.638 231.649994 653.708984 235.5 654.481018 C 239.350006 655.252014 244.299988 656.357971 246.5 656.937988 C 248.700012 657.518005 253.200012 658.419983 256.5 658.94397 C 259.799988 659.468018 266.325012 660.52301 271 661.289978 C 275.674988 662.05603 281.721008 662.778992 284.436005 662.896973 C 287.149994 663.015015 289.705994 663.317993 290.11499 663.570984 C 291.446014 664.393982 306.096985 666.05603 325 667.528992 C 346.57901 669.210999 403.80899 669.486023 420.940979 667.991028 C 445.538025 665.844971 477.966003 661.375 479.450012 659.927002 C 479.971985 659.416992 481.848022 659 483.617981 659 C 485.388977 659 493.380005 657.200012 501.377991 655 C 509.375977 652.799988 516.950012 651.018005 518.210022 651.041016 C 519.468994 651.062988 522.057983 652.413025 523.961975 654.041016 C 525.866028 655.66803 527.966003 657 528.629028 657 C 529.291016 657 530.002014 657.505981 530.208008 658.125 C 530.414978 658.744019 531.820984 659.25 533.333008 659.25 C 534.846008 659.25 535.83197 659.500977 535.525024 659.807983 C 534.737 660.596985 540.765991 663 543.531006 663 C 544.796997 663 546.000977 663.502991 546.205994 664.117981 C 546.703979 665.612 568.286987 666.213013 573.526978 664.879028 C 575.711975 664.322021 579.075012 663.520996 581 663.098999 C 589.997986 661.122986 607.797974 649.773987 604.869019 647.880005 C 603.905029 647.255981 604.23999 647.06897 606 647.247009 C 607.565979 647.405029 608.406982 647.03302 608.25 646.25 C 608.112976 645.562988 608.346008 645.112976 608.768982 645.25 C 610.77301 645.901001 618.435974 635.596985 623.038025 626.064026 C 628.580994 614.58197 630.924988 597.132996 628.656982 584.242981 C 627.960999 580.286011 628.088013 579.916992 630.465027 579.013 C 636.11499 576.86499 648.976013 568.77002 648.348999 567.755981 C 647.953979 567.117004 648.166992 566.984985 648.880981 567.427002 C 650.099976 568.179993 657.424011 563.93103 662.052979 559.786011 C 663.45697 558.528992 665.481995 556.979004 666.552979 556.343018 C 667.624023 555.70697 668.375977 554.661011 668.224976 554.018982 C 668.073975 553.377014 668.377991 553.11499 668.900024 553.437988 C 669.750977 553.963989 671.53302 552.611023 681.25 544.059998 C 682.763 542.728027 684 541.044983 684 540.320007 C 684 539.593994 684.562988 539.112976 685.25 539.25 C 685.937988 539.388 686.388 538.937988 686.25 538.25 C 686.112976 537.562988 686.338013 537.052979 686.75 537.117981 C 688.760986 537.435974 689.346985 536.859985 688 535.890015 C 686.710999 534.963013 686.732971 534.88501 688.156006 535.338013 C 689.995972 535.924011 693.437988 532.770996 692.252014 531.585999 C 691.838013 531.171997 692.018005 530.982971 692.651978 531.166992 C 694.271973 531.635986 703.13501 521.794983 702.525024 520.205017 C 702.249023 519.484985 702.416992 519.140015 702.89801 519.437012 C 704.468018 520.406982 715.52002 504.906006 714.254028 503.51001 C 713.838989 503.052979 713.971008 502.945984 714.546021 503.271973 C 716.026001 504.112 724.072021 490.419006 723.372986 488.247986 C 722.97998 487.025024 723.083984 486.877991 723.718994 487.755981 C 724.85199 489.325989 730.61499 477.804993 729.554993 476.088989 C 729.166992 475.460999 729.369019 475.073975 730.005005 475.224976 C 731.513977 475.585022 735.119019 466.557983 734.382019 464.268982 C 733.945984 462.919006 734.041992 462.822998 734.784973 463.864014 C 735.5 464.866028 736.447021 463.135986 738.343018 457.364014 C 747.383972 429.838989 751.174011 400.723999 749.065979 375.002014 C 748.383972 366.684998 747.414978 358.447998 746.913025 356.697021 C 746.411011 354.946045 746 351.796021 746 349.697998 C 746 347.598999 745.661987 346.088013 745.25 346.338989 C 744.836975 346.589966 744.400024 345.077026 744.278992 342.976013 C 743.778015 334.328003 728.903992 295.322998 726.640991 296.721985 C 726.117981 297.045044 725.945007 296.89801 726.255981 296.39502 C 727.106995 295.018005 724.189026 288.765015 723.030029 289.480957 C 722.476013 289.823975 722.232971 289.518005 722.491028 288.802002 C 723.127014 287.031982 714.65802 273.432983 713.127014 273.765991 C 712.447998 273.914001 712.036987 273.247009 712.203003 272.265991 C 712.377991 271.224976 711.955994 270.613037 711.176025 270.775024 C 710.447021 270.926025 710.10199 270.643005 710.408997 270.146973 C 710.716003 269.651001 709.312012 267.052002 707.289978 264.372009 C 703.127991 258.859009 701.963989 257.85199 700.406006 258.419006 C 699.744019 258.660034 699.486023 257.910034 699.750977 256.520996 C 700.106018 254.666992 697.757996 251.744019 687.594971 241.379028 C 680.66803 234.315002 675 228.190002 675 227.766968 C 675 227.344971 674.591003 227 674.09198 227 C 673.59198 227 671.090027 224.964966 668.531006 222.478027 C 665.971985 219.992004 663.387024 218.260986 662.784973 218.632996 C 662.161011 219.019043 661.973999 218.851013 662.349976 218.242004 C 662.713013 217.656006 661.094971 215.674988 658.755005 213.841003 C 656.414978 212.005981 653.458008 209.483032 652.184998 208.234009 C 650.911987 206.984009 649.380005 206.265015 648.781006 206.63501 C 648.151001 207.025024 647.976013 206.848022 648.366028 206.217041 C 648.737 205.615967 647.89801 204.30896 646.500977 203.312012 C 645.104004 202.315002 643.012024 200.721985 641.85199 199.770996 C 640.690979 198.820007 639.280029 198.327026 638.716003 198.674988 C 638.151978 199.023987 637.991028 198.823975 638.356995 198.230957 C 638.723999 197.638 637.55603 196.119995 635.762024 194.859009 C 633.968018 193.596985 631.150024 191.313965 629.5 189.786987 C 627.849976 188.259033 626.103027 187.006958 625.617004 187.005005 C 625.132019 187.002014 624 186.212036 623.103027 185.25 C 622.205994 184.287964 620.737 183.049988 619.838013 182.5 C 618.940002 181.950012 616.020996 179.940002 613.35199 178.033997 C 608.473999 174.549011 587.77301 160.875 579.617004 155.75 C 577.210022 154.238037 574.549011 153 573.703979 153 C 572.857971 153 572.017029 152.55896 571.833008 152.020996 C 571.35498 150.617004 541.914978 135.934021 540.870972 136.580017 C 540.392029 136.875977 540 136.73999 540 136.278015 C 540 135.815979 538.538025 134.843994 536.75 134.117981 C 525.437988 129.52301 518.218018 127.007019 516.333008 127.004028 C 515.142029 127.002014 514.017029 126.565002 513.833008 126.033997 C 513.650024 125.502991 511.924988 124.940979 510 124.783997 C 508.075012 124.627991 506.244019 124.155029 505.929993 123.733032 C 505.09198 122.603027 490.218018 122.015991 485 122.906982 M 240.5 286.851013 C 236.149994 287.10498 235.049988 287.428955 236.5 288.030029 C 237.877014 288.601013 236.552002 288.880981 232.25 288.929993 C 228.796997 288.968994 226 289.447021 226 290 C 226 290.549988 223.464996 291 220.365997 291 C 214.80899 291 207 292.721008 207 293.945007 C 207 294.291016 206.063995 294.64502 204.920013 294.730957 C 202.226013 294.93396 199.838989 296.93103 200.674988 298.282959 C 201.075989 298.932983 200.712006 299.104004 199.730011 298.72699 C 198.765015 298.355957 196.622009 299.299988 194.31601 301.110962 C 192.21701 302.76001 189.040009 305.256958 187.256012 306.660034 C 185.471985 308.062988 184.223999 309.553955 184.483002 309.971985 C 184.740997 310.390015 183.959015 311.579956 182.743988 312.615967 C 180.906006 314.18396 180.761993 314.205994 181.890015 312.75 C 182.63501 311.787964 182.809998 311 182.277008 311 C 180.979004 311 178 314.363037 178 315.828979 C 178 316.473022 177.52301 317 176.94101 317 C 176.359009 317 176.160004 317.450012 176.5 318 C 176.839996 318.549988 176.415985 319 175.55899 319 C 174.701996 319 174 319.702026 174 320.55896 C 174 321.416016 173.549988 321.839966 173 321.5 C 172.450012 321.160034 171.998993 321.471008 171.997986 322.19104 C 171.996002 322.911011 170.647003 325.075012 169 327 C 167.352997 328.924988 166.003998 331.287964 166.002014 332.25 C 166.001007 333.212036 165.597992 334 165.105988 334 C 162.472992 334 156.561996 355.296021 155.809006 367.5 L 155.5 372.5 L 198.5 373 C 222.207001 373.276001 242.397003 373.924011 243.5 374.44397 C 244.600006 374.963013 246.098999 375.97998 246.830994 376.703003 C 247.562012 377.427002 248.644012 377.719971 249.234985 377.35498 C 249.86499 376.966003 250.019012 377.160034 249.608002 377.825012 C 249.222992 378.447998 249.372986 379.828979 249.941986 380.891968 C 251.876007 384.505005 251.503998 391.827026 249.230988 394.901001 C 247.617004 397.083984 247.407013 398.009033 248.317993 398.927002 C 249.230011 399.846985 249.097992 399.964966 247.737 399.447021 C 246.768005 399.078003 245.417999 399.218994 244.737 399.759033 C 243.684998 400.594971 238.447998 401.011963 223.799988 401.424011 C 220.610992 401.514038 221.417999 402.686035 225 403.164978 C 226.858002 403.414001 227.539001 404.142029 227.651001 406 C 227.734985 407.375 227.901001 410.299988 228.019989 412.5 C 228.231995 416.40802 228.253998 416.43103 229 413.5 C 229.716003 410.684998 229.770996 410.760986 229.881989 414.75 C 229.983002 418.372986 229.704987 419 228 419 C 226.480011 419 226 419.666992 226 421.776978 L 226 424.554993 L 233.75 424.533997 C 238.755005 424.520996 242.38501 425.028992 244 425.968994 C 245.375 426.77002 246.871002 427.317993 247.324005 427.187988 C 247.778015 427.057007 247.864014 427.411987 247.515015 427.974976 C 247.166992 428.539001 247.359009 429 247.94101 429 C 248.52301 429 249.002991 429.562988 249.006012 430.25 C 249.01001 430.937988 249.643005 432.708984 250.414001 434.187012 C 252.013 437.250977 250.938995 444.304993 248.455994 447.049011 C 247.531006 448.070984 247.369995 448.969971 247.998993 449.598999 C 248.628998 450.229004 248.296997 450.570984 247.05899 450.570984 C 246.006989 450.570984 245.424988 450.10498 245.765015 449.536011 C 246.105988 448.966003 245.553009 449.174988 244.537994 450 C 243.119995 451.153015 238.737 451.616028 225.596008 452 L 208.5 452.5 L 207.223999 458.5 C 205.345001 467.33197 206.044006 493.413025 208.278015 497.870972 C 209.208008 499.726013 209.738007 501.61499 209.455994 502.070984 C 208.256012 504.013 219.22699 531 221.21701 531 C 221.712006 531 221.84201 531.445984 221.505005 531.992004 C 221.167999 532.536987 222.041992 534.132019 223.446014 535.536987 C 224.851013 536.942017 226 538.728027 226 539.507019 C 226 540.286011 227.912994 542.828003 230.25 545.156982 C 232.587006 547.484985 233.825012 548.991028 233 548.502991 C 231.709015 547.73999 231.690002 547.851013 232.863007 549.296997 C 233.613007 550.221985 234.626007 550.731018 235.113007 550.429993 C 235.601013 550.129028 236 550.609985 236 551.5 C 236 552.481018 236.460999 552.833008 237.170013 552.39502 C 237.937012 551.921021 238.136993 552.200989 237.748993 553.210999 C 237.023987 555.101013 244.098999 562.304993 246.881989 562.51001 C 248.023987 562.593994 248.613007 562.153992 248.334015 561.427002 C 248.075012 560.752991 248.259003 559.958008 248.740997 559.659973 C 249.223999 559.362 249.59201 560.778992 249.55899 562.809021 C 249.502014 566.356018 249.627014 566.492981 252.75 566.310974 C 255.959015 566.125 256.415985 566.700012 256.269989 570.739014 C 256.246002 571.421021 256.643005 571.719971 257.153992 571.405029 C 257.664001 571.090027 257.808014 569.969971 257.472992 568.916016 C 257.117004 567.794006 257.337006 567 258.003998 567 C 259.428986 567 262 569.507996 262 570.896973 C 262 571.468994 262.578003 571.715027 263.285004 571.44397 C 263.992004 571.172974 265.64801 571.955017 266.966003 573.182983 C 268.549988 574.65802 269.497986 575.005981 269.764008 574.20697 C 270.247009 572.757996 274 572.573975 274 574 C 274 574.549988 274.899994 575 276 575 C 277.100006 575 278 575.450012 278 576 C 278 576.549988 278.899994 577 280 577 C 281.100006 577 282 577.450012 282 578 C 282 578.549988 283.799988 579 286 579 C 288.200012 579 290 579.450012 290 580 C 290 580.549988 291.350006 581 293 581 C 294.649994 581 296 581.450012 296 582 C 296 582.549988 297.618988 583 299.598999 583 C 302.308014 583 303.890015 583.742004 306 586 C 307.722992 587.844971 309.803009 589 311.401001 589 C 312.830994 589 314 589.450012 314 590 C 314 590.55603 316.666992 591 320 591 C 323.333008 591 326 591.44397 326 592 C 326 592.55603 328.666992 593 332 593 C 335.333008 593 338 593.44397 338 594 C 338 594.549988 339.350006 595 341 595 C 342.649994 595 344 595.401001 344 595.890991 C 344 596.380005 345.462006 597.036987 347.25 597.348999 C 349.037994 597.661011 352.75 598.370972 355.5 598.927002 C 358.25 599.482971 362.524994 600.289001 365 600.718994 C 367.475006 601.148987 390.424988 601.304993 416 601.067017 C 442.094971 600.825012 459.64801 600.325989 456 599.932007 L 449.5 599.228027 L 457.75 599.372009 C 463.784973 599.476013 466 599.177002 466 598.257019 C 466 597.565979 465.099976 597 464 597 C 462.900024 597 462 596.549988 462 596 C 462 594.549011 465.757019 594.77002 466.250977 596.25 C 466.583984 597.25 467.604004 597.25 471.348022 596.25 C 473.921997 595.562988 476.921997 595 478.013977 595 C 479.106018 595 480 594.549988 480 594 C 480 593.450012 478.843018 593 477.429016 593 C 476.013977 593 474.164978 592.307983 473.317993 591.460999 C 471.932983 590.075989 472.065002 589.677002 474.640015 587.461975 L 477.5 585.002014 L 473.5 584.851013 L 469.5 584.700012 L 474 584 C 477.554993 583.447021 476.189026 583.22699 467.5 582.953003 C 461.450012 582.762024 454.586975 582.71698 452.25 582.853027 C 449.913025 582.989014 448 582.715027 448 582.244995 C 448 581.775024 444.513 580.820984 440.25 580.125 C 431.794006 578.744995 413.131989 574.054993 406.031006 571.526001 C 398.091003 568.697998 384.51001 562.671021 384.166992 561.823975 C 383.983002 561.370972 383.007996 561 382 561 C 380.992004 561 380.016998 560.65802 379.833008 560.241028 C 379.35199 559.143005 368.670013 552.853027 367.589996 553.030029 C 367.088989 553.112 366.278992 552.463989 365.790009 551.590027 C 365.300995 550.715027 363.591003 549.322998 361.990997 548.494995 C 360.390991 547.66803 357.980988 545.981018 356.635986 544.744995 C 352.09201 540.573975 350.977997 539.89502 349.833008 540.603027 C 349.187012 541.002991 348.963013 540.869019 349.316986 540.296021 C 349.661987 539.737976 345.911011 535.281006 340.981995 530.390991 C 336.053009 525.500977 332.015015 521.138 332.01001 520.695984 C 332.003998 520.252991 330.652008 518.453003 329.005005 516.695984 C 327.356995 514.937988 326.006989 512.911011 326.005005 512.190979 C 326.002014 511.471008 325.549988 511.159973 325 511.5 C 324.450012 511.840027 324 511.416016 324 510.559021 C 324 509.702026 323.549988 509 323 509 C 322.450012 509 322 508.325012 322 507.5 C 322 506.674988 321.136993 505.137024 320.083008 504.083008 C 319.028992 503.028992 318.428986 501.903992 318.75 501.583008 C 319.071014 501.262024 318.808014 501 318.166992 501 C 317.524994 501 317.096985 500.663025 317.214996 500.25 C 317.333008 499.836975 316.286011 497.700012 314.889008 495.5 C 313.492004 493.299988 311.261993 488.799988 309.93399 485.5 C 308.605988 482.200012 307.256012 479.275024 306.934998 479 C 306.614014 478.724976 305.766998 476.370972 305.050995 473.768005 C 304.335999 471.166016 303.355988 469.280029 302.875 469.577026 C 302.394012 469.875 302 468.913025 302 467.440002 C 302 465.968018 301.127991 462.002991 300.062012 458.630981 C 298.996002 455.258972 297.602997 449.799988 296.966003 446.5 C 296.32901 443.200012 295.415985 438.474976 294.937012 436 C 292.341003 422.580017 292.283997 381.156982 294.845001 369.122986 C 295.386993 366.579956 296.377991 361.125 297.048004 357 C 297.717987 352.875 299.338989 344.81604 300.649994 339.089966 C 301.960999 333.36499 302.770996 327.73999 302.450989 326.589966 C 302.074005 325.234985 302.177002 324.940002 302.744995 325.752014 C 303.334015 326.594971 304.054993 325.286987 304.947998 321.752014 C 306.684998 314.875977 311.841003 298.976013 313.050995 296.764038 C 313.572998 295.80896 314 294.120972 314 293.014038 C 314 291.428955 313.308014 290.979004 310.75 290.900024 C 307.67099 290.80603 307.631012 290.759033 310 290 C 312.368988 289.240967 312.32901 289.19397 309.25 289.099976 C 307.462006 289.045044 306 289.450012 306 290 C 306 290.549988 305.100006 291 304 291 C 302.899994 291 302 290.549988 302 290 C 302 289.450012 299.187988 288.932007 295.75 288.849976 C 289.593994 288.702026 289.566986 288.688965 294 288.016968 C 298.776001 287.291992 250.82901 286.247009 240.5 286.851013 M 555.228027 582.075989 C 550.700989 584.197998 544.580017 591.461975 545.435974 593.695007 C 545.711975 594.413025 545.500977 595 544.968994 595 C 544.435974 595 544 597.052002 544 599.559021 C 544 602.75 544.346008 603.903992 545.155029 603.405029 C 545.88501 602.953003 546.036987 603.130981 545.567993 603.888977 C 543.434021 607.34198 554.286011 616.979004 558.491028 615.36499 C 559.320984 615.046997 560 615.283997 560 615.893005 C 560 618.702026 571.112 615.879028 576.096008 611.804993 C 578.000977 610.247986 580.465027 605.559021 581.375977 601.758972 C 583.044006 594.802979 577.179016 584.56897 569.781982 581.528015 C 564.817993 579.487976 560.393005 579.653992 555.228027 582.075989 M 404.29599 602.744019 C 408.583008 602.932007 415.333008 602.93103 419.296021 602.742004 C 423.257996 602.552002 419.75 602.398987 411.5 602.400024 C 403.25 602.401001 400.007996 602.55603 404.29599 602.744019"/>
</svg>
